<?xml version="1.0" encoding="utf-8" standalone="no"?>
<!DOCTYPE svg PUBLIC "-//W3C//DTD SVG 1.1//EN"
  "http://www.w3.org/Graphics/SVG/1.1/DTD/svg11.dtd">
<!-- Created with matplotlib (http://matplotlib.org/) -->
<svg height="432pt" version="1.1" viewBox="0 0 1440 432" width="1440pt" xmlns="http://www.w3.org/2000/svg" xmlns:xlink="http://www.w3.org/1999/xlink">
 <defs>
  <style type="text/css">
*{stroke-linecap:butt;stroke-linejoin:round;}
  </style>
 </defs>
 <g id="figure_1">
  <g id="patch_1">
   <path d="M 0 432 
L 1440 432 
L 1440 0 
L 0 0 
z
" style="fill:#ffffff;"/>
  </g>
  <g id="axes_1">
   <g id="patch_2">
    <path d="M 144 388.8 
L 576 388.8 
L 576 302.4 
L 144 302.4 
z
" style="fill:#ffffff;"/>
   </g>
   <g id="patch_3">
    <path clip-path="url(#pf77f49266c)" d="M 144 378 
L 155.87315 378 
L 155.87315 356.4 
L 144 356.4 
z
" style="fill:#1f77b4;"/>
   </g>
   <g id="patch_4">
    <path clip-path="url(#pf77f49266c)" d="M 144 334.8 
L 170.925208 334.8 
L 170.925208 313.2 
L 144 313.2 
z
" style="fill:#1f77b4;"/>
   </g>
   <g id="patch_5">
    <path clip-path="url(#pf77f49266c)" d="M 155.87315 378 
L 175.052854 378 
L 175.052854 356.4 
L 155.87315 356.4 
z
" style="fill:#aec7e8;"/>
   </g>
   <g id="patch_6">
    <path clip-path="url(#pf77f49266c)" d="M 170.925208 334.8 
L 190.072022 334.8 
L 190.072022 313.2 
L 170.925208 313.2 
z
" style="fill:#aec7e8;"/>
   </g>
   <g id="patch_7">
    <path clip-path="url(#pf77f49266c)" d="M 175.052854 378 
L 206.105708 378 
L 206.105708 356.4 
L 175.052854 356.4 
z
" style="fill:#ff7f0e;"/>
   </g>
   <g id="patch_8">
    <path clip-path="url(#pf77f49266c)" d="M 190.072022 334.8 
L 211.01385 334.8 
L 211.01385 313.2 
L 190.072022 313.2 
z
" style="fill:#ff7f0e;"/>
   </g>
   <g id="patch_9">
    <path clip-path="url(#pf77f49266c)" d="M 206.105708 378 
L 222.545455 378 
L 222.545455 356.4 
L 206.105708 356.4 
z
" style="fill:#ffbb78;"/>
   </g>
   <g id="patch_10">
    <path clip-path="url(#pf77f49266c)" d="M 211.01385 334.8 
L 221.185596 334.8 
L 221.185596 313.2 
L 211.01385 313.2 
z
" style="fill:#ffbb78;"/>
   </g>
   <g id="patch_11">
    <path clip-path="url(#pf77f49266c)" d="M 222.545455 378 
L 297.437632 378 
L 297.437632 356.4 
L 222.545455 356.4 
z
" style="fill:#2ca02c;"/>
   </g>
   <g id="patch_12">
    <path clip-path="url(#pf77f49266c)" d="M 221.185596 334.8 
L 282.216066 334.8 
L 282.216066 313.2 
L 221.185596 313.2 
z
" style="fill:#2ca02c;"/>
   </g>
   <g id="patch_13">
    <path clip-path="url(#pf77f49266c)" d="M 297.437632 378 
L 303.830867 378 
L 303.830867 356.4 
L 297.437632 356.4 
z
" style="fill:#98df8a;"/>
   </g>
   <g id="patch_14">
    <path clip-path="url(#pf77f49266c)" d="M 282.216066 334.8 
L 294.781163 334.8 
L 294.781163 313.2 
L 282.216066 313.2 
z
" style="fill:#98df8a;"/>
   </g>
   <g id="patch_15">
    <path clip-path="url(#pf77f49266c)" d="M 303.830867 378 
L 331.230444 378 
L 331.230444 356.4 
L 303.830867 356.4 
z
" style="fill:#d62728;"/>
   </g>
   <g id="patch_16">
    <path clip-path="url(#pf77f49266c)" d="M 294.781163 334.8 
L 323.501385 334.8 
L 323.501385 313.2 
L 294.781163 313.2 
z
" style="fill:#d62728;"/>
   </g>
   <g id="patch_17">
    <path clip-path="url(#pf77f49266c)" d="M 331.230444 378 
L 339.450317 378 
L 339.450317 356.4 
L 331.230444 356.4 
z
" style="fill:#ff9896;"/>
   </g>
   <g id="patch_18">
    <path clip-path="url(#pf77f49266c)" d="M 323.501385 334.8 
L 334.271468 334.8 
L 334.271468 313.2 
L 323.501385 313.2 
z
" style="fill:#ff9896;"/>
   </g>
   <g id="patch_19">
    <path clip-path="url(#pf77f49266c)" d="M 339.450317 378 
L 371.41649 378 
L 371.41649 356.4 
L 339.450317 356.4 
z
" style="fill:#9467bd;"/>
   </g>
   <g id="patch_20">
    <path clip-path="url(#pf77f49266c)" d="M 334.271468 334.8 
L 367.180055 334.8 
L 367.180055 313.2 
L 334.271468 313.2 
z
" style="fill:#9467bd;"/>
   </g>
   <g id="patch_21">
    <path clip-path="url(#pf77f49266c)" d="M 371.41649 378 
L 395.162791 378 
L 395.162791 356.4 
L 371.41649 356.4 
z
" style="fill:#c5b0d5;"/>
   </g>
   <g id="patch_22">
    <path clip-path="url(#pf77f49266c)" d="M 367.180055 334.8 
L 386.32687 334.8 
L 386.32687 313.2 
L 367.180055 313.2 
z
" style="fill:#c5b0d5;"/>
   </g>
   <g id="patch_23">
    <path clip-path="url(#pf77f49266c)" d="M 395.162791 378 
L 410.689218 378 
L 410.689218 356.4 
L 395.162791 356.4 
z
" style="fill:#8c564b;"/>
   </g>
   <g id="patch_24">
    <path clip-path="url(#pf77f49266c)" d="M 386.32687 334.8 
L 400.088643 334.8 
L 400.088643 313.2 
L 386.32687 313.2 
z
" style="fill:#8c564b;"/>
   </g>
   <g id="patch_25">
    <path clip-path="url(#pf77f49266c)" d="M 410.689218 378 
L 421.649049 378 
L 421.649049 356.4 
L 410.689218 356.4 
z
" style="fill:#c49c94;"/>
   </g>
   <g id="patch_26">
    <path clip-path="url(#pf77f49266c)" d="M 400.088643 334.8 
L 412.055402 334.8 
L 412.055402 313.2 
L 400.088643 313.2 
z
" style="fill:#c49c94;"/>
   </g>
   <g id="patch_27">
    <path clip-path="url(#pf77f49266c)" d="M 421.649049 378 
L 433.522199 378 
L 433.522199 356.4 
L 421.649049 356.4 
z
" style="fill:#e377c2;"/>
   </g>
   <g id="patch_28">
    <path clip-path="url(#pf77f49266c)" d="M 412.055402 334.8 
L 424.022161 334.8 
L 424.022161 313.2 
L 412.055402 313.2 
z
" style="fill:#e377c2;"/>
   </g>
   <g id="patch_29">
    <path clip-path="url(#pf77f49266c)" d="M 433.522199 378 
L 447.221987 378 
L 447.221987 356.4 
L 433.522199 356.4 
z
" style="fill:#f7b6d2;"/>
   </g>
   <g id="patch_30">
    <path clip-path="url(#pf77f49266c)" d="M 424.022161 334.8 
L 437.783934 334.8 
L 437.783934 313.2 
L 424.022161 313.2 
z
" style="fill:#f7b6d2;"/>
   </g>
   <g id="patch_31">
    <path clip-path="url(#pf77f49266c)" d="M 447.221987 378 
L 456.35518 378 
L 456.35518 356.4 
L 447.221987 356.4 
z
" style="fill:#7f7f7f;"/>
   </g>
   <g id="patch_32">
    <path clip-path="url(#pf77f49266c)" d="M 437.783934 334.8 
L 447.357341 334.8 
L 447.357341 313.2 
L 437.783934 313.2 
z
" style="fill:#7f7f7f;"/>
   </g>
   <g id="patch_33">
    <path clip-path="url(#pf77f49266c)" d="M 456.35518 378 
L 470.968288 378 
L 470.968288 356.4 
L 456.35518 356.4 
z
" style="fill:#c7c7c7;"/>
   </g>
   <g id="patch_34">
    <path clip-path="url(#pf77f49266c)" d="M 447.357341 334.8 
L 466.504155 334.8 
L 466.504155 313.2 
L 447.357341 313.2 
z
" style="fill:#c7c7c7;"/>
   </g>
   <g id="patch_35">
    <path clip-path="url(#pf77f49266c)" d="M 470.968288 378 
L 478.274841 378 
L 478.274841 356.4 
L 470.968288 356.4 
z
" style="fill:#bcbd22;"/>
   </g>
   <g id="patch_36">
    <path clip-path="url(#pf77f49266c)" d="M 466.504155 334.8 
L 477.274238 334.8 
L 477.274238 313.2 
L 466.504155 313.2 
z
" style="fill:#bcbd22;"/>
   </g>
   <g id="patch_37">
    <path clip-path="url(#pf77f49266c)" d="M 478.274841 378 
L 491.97463 378 
L 491.97463 356.4 
L 478.274841 356.4 
z
" style="fill:#dbdb8d;"/>
   </g>
   <g id="patch_38">
    <path clip-path="url(#pf77f49266c)" d="M 477.274238 334.8 
L 488.642659 334.8 
L 488.642659 313.2 
L 477.274238 313.2 
z
" style="fill:#dbdb8d;"/>
   </g>
   <g id="patch_39">
    <path clip-path="url(#pf77f49266c)" d="M 491.97463 378 
L 504.761099 378 
L 504.761099 356.4 
L 491.97463 356.4 
z
" style="fill:#17becf;"/>
   </g>
   <g id="patch_40">
    <path clip-path="url(#pf77f49266c)" d="M 488.642659 334.8 
L 512.576177 334.8 
L 512.576177 313.2 
L 488.642659 313.2 
z
" style="fill:#17becf;"/>
   </g>
   <g id="patch_41">
    <path clip-path="url(#pf77f49266c)" d="M 504.761099 378 
L 576 378 
L 576 356.4 
L 504.761099 356.4 
z
" style="fill:#9edae5;"/>
   </g>
   <g id="patch_42">
    <path clip-path="url(#pf77f49266c)" d="M 512.576177 334.8 
L 576 334.8 
L 576 313.2 
L 512.576177 313.2 
z
" style="fill:#9edae5;"/>
   </g>
   <g id="matplotlib.axis_1">
    <g id="xtick_1">
     <g id="line2d_1">
      <defs>
       <path d="M 0 0 
L 0 6 
" id="mcf5cca3402" style="stroke:#000000;stroke-width:2.5;"/>
      </defs>
      <g>
       <use style="stroke:#000000;stroke-width:2.5;" x="144" xlink:href="#mcf5cca3402" y="393.8"/>
      </g>
     </g>
     <g id="text_1">
      <!-- 0.0 -->
      <defs>
       <path d="M 31.78125 66.40625 
Q 24.171875 66.40625 20.328125 58.90625 
Q 16.5 51.421875 16.5 36.375 
Q 16.5 21.390625 20.328125 13.890625 
Q 24.171875 6.390625 31.78125 6.390625 
Q 39.453125 6.390625 43.28125 13.890625 
Q 47.125 21.390625 47.125 36.375 
Q 47.125 51.421875 43.28125 58.90625 
Q 39.453125 66.40625 31.78125 66.40625 
z
M 31.78125 74.21875 
Q 44.046875 74.21875 50.515625 64.515625 
Q 56.984375 54.828125 56.984375 36.375 
Q 56.984375 17.96875 50.515625 8.265625 
Q 44.046875 -1.421875 31.78125 -1.421875 
Q 19.53125 -1.421875 13.0625 8.265625 
Q 6.59375 17.96875 6.59375 36.375 
Q 6.59375 54.828125 13.0625 64.515625 
Q 19.53125 74.21875 31.78125 74.21875 
z
" id="DejaVuSans-30"/>
       <path d="M 10.6875 12.40625 
L 21 12.40625 
L 21 0 
L 10.6875 0 
z
" id="DejaVuSans-2e"/>
      </defs>
      <g transform="translate(128.096875 417.496875)scale(0.2 -0.2)">
       <use xlink:href="#DejaVuSans-30"/>
       <use x="63.623047" xlink:href="#DejaVuSans-2e"/>
       <use x="95.410156" xlink:href="#DejaVuSans-30"/>
      </g>
     </g>
    </g>
    <g id="xtick_2">
     <g id="line2d_2">
      <g>
       <use style="stroke:#000000;stroke-width:2.5;" x="360" xlink:href="#mcf5cca3402" y="393.8"/>
      </g>
     </g>
     <g id="text_2">
      <!-- 0.5 -->
      <defs>
       <path d="M 10.796875 72.90625 
L 49.515625 72.90625 
L 49.515625 64.59375 
L 19.828125 64.59375 
L 19.828125 46.734375 
Q 21.96875 47.46875 24.109375 47.828125 
Q 26.265625 48.1875 28.421875 48.1875 
Q 40.625 48.1875 47.75 41.5 
Q 54.890625 34.8125 54.890625 23.390625 
Q 54.890625 11.625 47.5625 5.09375 
Q 40.234375 -1.421875 26.90625 -1.421875 
Q 22.3125 -1.421875 17.546875 -0.640625 
Q 12.796875 0.140625 7.71875 1.703125 
L 7.71875 11.625 
Q 12.109375 9.234375 16.796875 8.0625 
Q 21.484375 6.890625 26.703125 6.890625 
Q 35.15625 6.890625 40.078125 11.328125 
Q 45.015625 15.765625 45.015625 23.390625 
Q 45.015625 31 40.078125 35.4375 
Q 35.15625 39.890625 26.703125 39.890625 
Q 22.75 39.890625 18.8125 39.015625 
Q 14.890625 38.140625 10.796875 36.28125 
z
" id="DejaVuSans-35"/>
      </defs>
      <g transform="translate(344.096875 417.496875)scale(0.2 -0.2)">
       <use xlink:href="#DejaVuSans-30"/>
       <use x="63.623047" xlink:href="#DejaVuSans-2e"/>
       <use x="95.410156" xlink:href="#DejaVuSans-35"/>
      </g>
     </g>
    </g>
    <g id="xtick_3">
     <g id="line2d_3">
      <g>
       <use style="stroke:#000000;stroke-width:2.5;" x="576" xlink:href="#mcf5cca3402" y="393.8"/>
      </g>
     </g>
     <g id="text_3">
      <!-- 1.0 -->
      <defs>
       <path d="M 12.40625 8.296875 
L 28.515625 8.296875 
L 28.515625 63.921875 
L 10.984375 60.40625 
L 10.984375 69.390625 
L 28.421875 72.90625 
L 38.28125 72.90625 
L 38.28125 8.296875 
L 54.390625 8.296875 
L 54.390625 0 
L 12.40625 0 
z
" id="DejaVuSans-31"/>
      </defs>
      <g transform="translate(560.096875 417.496875)scale(0.2 -0.2)">
       <use xlink:href="#DejaVuSans-31"/>
       <use x="63.623047" xlink:href="#DejaVuSans-2e"/>
       <use x="95.410156" xlink:href="#DejaVuSans-30"/>
      </g>
     </g>
    </g>
   </g>
   <g id="matplotlib.axis_2">
    <g id="ytick_1">
     <g id="line2d_4"/>
     <g id="text_4">
      <!-- private -->
      <defs>
       <path d="M 18.109375 8.203125 
L 18.109375 -20.796875 
L 9.078125 -20.796875 
L 9.078125 54.6875 
L 18.109375 54.6875 
L 18.109375 46.390625 
Q 20.953125 51.265625 25.265625 53.625 
Q 29.59375 56 35.59375 56 
Q 45.5625 56 51.78125 48.09375 
Q 58.015625 40.1875 58.015625 27.296875 
Q 58.015625 14.40625 51.78125 6.484375 
Q 45.5625 -1.421875 35.59375 -1.421875 
Q 29.59375 -1.421875 25.265625 0.953125 
Q 20.953125 3.328125 18.109375 8.203125 
z
M 48.6875 27.296875 
Q 48.6875 37.203125 44.609375 42.84375 
Q 40.53125 48.484375 33.40625 48.484375 
Q 26.265625 48.484375 22.1875 42.84375 
Q 18.109375 37.203125 18.109375 27.296875 
Q 18.109375 17.390625 22.1875 11.75 
Q 26.265625 6.109375 33.40625 6.109375 
Q 40.53125 6.109375 44.609375 11.75 
Q 48.6875 17.390625 48.6875 27.296875 
z
" id="DejaVuSans-70"/>
       <path d="M 41.109375 46.296875 
Q 39.59375 47.171875 37.8125 47.578125 
Q 36.03125 48 33.890625 48 
Q 26.265625 48 22.1875 43.046875 
Q 18.109375 38.09375 18.109375 28.8125 
L 18.109375 0 
L 9.078125 0 
L 9.078125 54.6875 
L 18.109375 54.6875 
L 18.109375 46.1875 
Q 20.953125 51.171875 25.484375 53.578125 
Q 30.03125 56 36.53125 56 
Q 37.453125 56 38.578125 55.875 
Q 39.703125 55.765625 41.0625 55.515625 
z
" id="DejaVuSans-72"/>
       <path d="M 9.421875 54.6875 
L 18.40625 54.6875 
L 18.40625 0 
L 9.421875 0 
z
M 9.421875 75.984375 
L 18.40625 75.984375 
L 18.40625 64.59375 
L 9.421875 64.59375 
z
" id="DejaVuSans-69"/>
       <path d="M 2.984375 54.6875 
L 12.5 54.6875 
L 29.59375 8.796875 
L 46.6875 54.6875 
L 56.203125 54.6875 
L 35.6875 0 
L 23.484375 0 
z
" id="DejaVuSans-76"/>
       <path d="M 34.28125 27.484375 
Q 23.390625 27.484375 19.1875 25 
Q 14.984375 22.515625 14.984375 16.5 
Q 14.984375 11.71875 18.140625 8.90625 
Q 21.296875 6.109375 26.703125 6.109375 
Q 34.1875 6.109375 38.703125 11.40625 
Q 43.21875 16.703125 43.21875 25.484375 
L 43.21875 27.484375 
z
M 52.203125 31.203125 
L 52.203125 0 
L 43.21875 0 
L 43.21875 8.296875 
Q 40.140625 3.328125 35.546875 0.953125 
Q 30.953125 -1.421875 24.3125 -1.421875 
Q 15.921875 -1.421875 10.953125 3.296875 
Q 6 8.015625 6 15.921875 
Q 6 25.140625 12.171875 29.828125 
Q 18.359375 34.515625 30.609375 34.515625 
L 43.21875 34.515625 
L 43.21875 35.40625 
Q 43.21875 41.609375 39.140625 45 
Q 35.0625 48.390625 27.6875 48.390625 
Q 23 48.390625 18.546875 47.265625 
Q 14.109375 46.140625 10.015625 43.890625 
L 10.015625 52.203125 
Q 14.9375 54.109375 19.578125 55.046875 
Q 24.21875 56 28.609375 56 
Q 40.484375 56 46.34375 49.84375 
Q 52.203125 43.703125 52.203125 31.203125 
z
" id="DejaVuSans-61"/>
       <path d="M 18.3125 70.21875 
L 18.3125 54.6875 
L 36.8125 54.6875 
L 36.8125 47.703125 
L 18.3125 47.703125 
L 18.3125 18.015625 
Q 18.3125 11.328125 20.140625 9.421875 
Q 21.96875 7.515625 27.59375 7.515625 
L 36.8125 7.515625 
L 36.8125 0 
L 27.59375 0 
Q 17.1875 0 13.234375 3.875 
Q 9.28125 7.765625 9.28125 18.015625 
L 9.28125 47.703125 
L 2.6875 47.703125 
L 2.6875 54.6875 
L 9.28125 54.6875 
L 9.28125 70.21875 
z
" id="DejaVuSans-74"/>
       <path d="M 56.203125 29.59375 
L 56.203125 25.203125 
L 14.890625 25.203125 
Q 15.484375 15.921875 20.484375 11.0625 
Q 25.484375 6.203125 34.421875 6.203125 
Q 39.59375 6.203125 44.453125 7.46875 
Q 49.3125 8.734375 54.109375 11.28125 
L 54.109375 2.78125 
Q 49.265625 0.734375 44.1875 -0.34375 
Q 39.109375 -1.421875 33.890625 -1.421875 
Q 20.796875 -1.421875 13.15625 6.1875 
Q 5.515625 13.8125 5.515625 26.8125 
Q 5.515625 40.234375 12.765625 48.109375 
Q 20.015625 56 32.328125 56 
Q 43.359375 56 49.78125 48.890625 
Q 56.203125 41.796875 56.203125 29.59375 
z
M 47.21875 32.234375 
Q 47.125 39.59375 43.09375 43.984375 
Q 39.0625 48.390625 32.421875 48.390625 
Q 24.90625 48.390625 20.390625 44.140625 
Q 15.875 39.890625 15.1875 32.171875 
z
" id="DejaVuSans-65"/>
      </defs>
      <g transform="translate(69.784375 363.600625)scale(0.2 -0.2)">
       <use xlink:href="#DejaVuSans-70"/>
       <use x="63.476562" xlink:href="#DejaVuSans-72"/>
       <use x="104.589844" xlink:href="#DejaVuSans-69"/>
       <use x="132.373047" xlink:href="#DejaVuSans-76"/>
       <use x="191.552734" xlink:href="#DejaVuSans-61"/>
       <use x="252.832031" xlink:href="#DejaVuSans-74"/>
       <use x="292.041016" xlink:href="#DejaVuSans-65"/>
      </g>
      <!-- set -->
      <defs>
       <path d="M 44.28125 53.078125 
L 44.28125 44.578125 
Q 40.484375 46.53125 36.375 47.5 
Q 32.28125 48.484375 27.875 48.484375 
Q 21.1875 48.484375 17.84375 46.4375 
Q 14.5 44.390625 14.5 40.28125 
Q 14.5 37.15625 16.890625 35.375 
Q 19.28125 33.59375 26.515625 31.984375 
L 29.59375 31.296875 
Q 39.15625 29.25 43.1875 25.515625 
Q 47.21875 21.78125 47.21875 15.09375 
Q 47.21875 7.46875 41.1875 3.015625 
Q 35.15625 -1.421875 24.609375 -1.421875 
Q 20.21875 -1.421875 15.453125 -0.5625 
Q 10.6875 0.296875 5.421875 2 
L 5.421875 11.28125 
Q 10.40625 8.6875 15.234375 7.390625 
Q 20.0625 6.109375 24.8125 6.109375 
Q 31.15625 6.109375 34.5625 8.28125 
Q 37.984375 10.453125 37.984375 14.40625 
Q 37.984375 18.0625 35.515625 20.015625 
Q 33.0625 21.96875 24.703125 23.78125 
L 21.578125 24.515625 
Q 13.234375 26.265625 9.515625 29.90625 
Q 5.8125 33.546875 5.8125 39.890625 
Q 5.8125 47.609375 11.28125 51.796875 
Q 16.75 56 26.8125 56 
Q 31.78125 56 36.171875 55.265625 
Q 40.578125 54.546875 44.28125 53.078125 
z
" id="DejaVuSans-73"/>
      </defs>
      <g transform="translate(109.934375 385.99625)scale(0.2 -0.2)">
       <use xlink:href="#DejaVuSans-73"/>
       <use x="52.099609" xlink:href="#DejaVuSans-65"/>
       <use x="113.623047" xlink:href="#DejaVuSans-74"/>
      </g>
     </g>
    </g>
    <g id="ytick_2">
     <g id="line2d_5"/>
     <g id="text_5">
      <!-- public -->
      <defs>
       <path d="M 8.5 21.578125 
L 8.5 54.6875 
L 17.484375 54.6875 
L 17.484375 21.921875 
Q 17.484375 14.15625 20.5 10.265625 
Q 23.53125 6.390625 29.59375 6.390625 
Q 36.859375 6.390625 41.078125 11.03125 
Q 45.3125 15.671875 45.3125 23.6875 
L 45.3125 54.6875 
L 54.296875 54.6875 
L 54.296875 0 
L 45.3125 0 
L 45.3125 8.40625 
Q 42.046875 3.421875 37.71875 1 
Q 33.40625 -1.421875 27.6875 -1.421875 
Q 18.265625 -1.421875 13.375 4.4375 
Q 8.5 10.296875 8.5 21.578125 
z
M 31.109375 56 
z
" id="DejaVuSans-75"/>
       <path d="M 48.6875 27.296875 
Q 48.6875 37.203125 44.609375 42.84375 
Q 40.53125 48.484375 33.40625 48.484375 
Q 26.265625 48.484375 22.1875 42.84375 
Q 18.109375 37.203125 18.109375 27.296875 
Q 18.109375 17.390625 22.1875 11.75 
Q 26.265625 6.109375 33.40625 6.109375 
Q 40.53125 6.109375 44.609375 11.75 
Q 48.6875 17.390625 48.6875 27.296875 
z
M 18.109375 46.390625 
Q 20.953125 51.265625 25.265625 53.625 
Q 29.59375 56 35.59375 56 
Q 45.5625 56 51.78125 48.09375 
Q 58.015625 40.1875 58.015625 27.296875 
Q 58.015625 14.40625 51.78125 6.484375 
Q 45.5625 -1.421875 35.59375 -1.421875 
Q 29.59375 -1.421875 25.265625 0.953125 
Q 20.953125 3.328125 18.109375 8.203125 
L 18.109375 0 
L 9.078125 0 
L 9.078125 75.984375 
L 18.109375 75.984375 
z
" id="DejaVuSans-62"/>
       <path d="M 9.421875 75.984375 
L 18.40625 75.984375 
L 18.40625 0 
L 9.421875 0 
z
" id="DejaVuSans-6c"/>
       <path d="M 48.78125 52.59375 
L 48.78125 44.1875 
Q 44.96875 46.296875 41.140625 47.34375 
Q 37.3125 48.390625 33.40625 48.390625 
Q 24.65625 48.390625 19.8125 42.84375 
Q 14.984375 37.3125 14.984375 27.296875 
Q 14.984375 17.28125 19.8125 11.734375 
Q 24.65625 6.203125 33.40625 6.203125 
Q 37.3125 6.203125 41.140625 7.25 
Q 44.96875 8.296875 48.78125 10.40625 
L 48.78125 2.09375 
Q 45.015625 0.34375 40.984375 -0.53125 
Q 36.96875 -1.421875 32.421875 -1.421875 
Q 20.0625 -1.421875 12.78125 6.34375 
Q 5.515625 14.109375 5.515625 27.296875 
Q 5.515625 40.671875 12.859375 48.328125 
Q 20.21875 56 33.015625 56 
Q 37.15625 56 41.109375 55.140625 
Q 45.0625 54.296875 48.78125 52.59375 
z
" id="DejaVuSans-63"/>
      </defs>
      <g transform="translate(80.321875 320.400625)scale(0.2 -0.2)">
       <use xlink:href="#DejaVuSans-70"/>
       <use x="63.476562" xlink:href="#DejaVuSans-75"/>
       <use x="126.855469" xlink:href="#DejaVuSans-62"/>
       <use x="190.332031" xlink:href="#DejaVuSans-6c"/>
       <use x="218.115234" xlink:href="#DejaVuSans-69"/>
       <use x="245.898438" xlink:href="#DejaVuSans-63"/>
      </g>
      <!-- set -->
      <g transform="translate(109.934375 342.79625)scale(0.2 -0.2)">
       <use xlink:href="#DejaVuSans-73"/>
       <use x="52.099609" xlink:href="#DejaVuSans-65"/>
       <use x="113.623047" xlink:href="#DejaVuSans-74"/>
      </g>
     </g>
    </g>
   </g>
   <g id="patch_43">
    <path d="M 144 393.8 
L 576 393.8 
" style="fill:none;stroke:#000000;stroke-linecap:square;stroke-linejoin:miter;stroke-width:2.5;"/>
   </g>
   <g id="text_6">
    <!-- (d) -->
    <defs>
     <path d="M 37.703125 -13.1875 
L 23.1875 -13.1875 
Q 15.71875 -1.125 12.15625 9.734375 
Q 8.59375 20.609375 8.59375 31.296875 
Q 8.59375 42 12.171875 52.953125 
Q 15.765625 63.921875 23.1875 75.875 
L 37.703125 75.875 
Q 31.453125 64.3125 28.328125 53.25 
Q 25.203125 42.1875 25.203125 31.390625 
Q 25.203125 20.609375 28.296875 9.515625 
Q 31.390625 -1.5625 37.703125 -13.1875 
z
" id="DejaVuSans-Bold-28"/>
     <path d="M 45.609375 46.6875 
L 45.609375 75.984375 
L 63.1875 75.984375 
L 63.1875 0 
L 45.609375 0 
L 45.609375 7.90625 
Q 42 3.078125 37.640625 0.828125 
Q 33.296875 -1.421875 27.59375 -1.421875 
Q 17.484375 -1.421875 10.984375 6.609375 
Q 4.5 14.65625 4.5 27.296875 
Q 4.5 39.9375 10.984375 47.96875 
Q 17.484375 56 27.59375 56 
Q 33.25 56 37.625 53.734375 
Q 42 51.46875 45.609375 46.6875 
z
M 34.078125 11.28125 
Q 39.703125 11.28125 42.65625 15.375 
Q 45.609375 19.484375 45.609375 27.296875 
Q 45.609375 35.109375 42.65625 39.203125 
Q 39.703125 43.3125 34.078125 43.3125 
Q 28.515625 43.3125 25.5625 39.203125 
Q 22.609375 35.109375 22.609375 27.296875 
Q 22.609375 19.484375 25.5625 15.375 
Q 28.515625 11.28125 34.078125 11.28125 
z
" id="DejaVuSans-Bold-64"/>
     <path d="M 8.015625 -13.1875 
Q 14.265625 -1.5625 17.390625 9.515625 
Q 20.515625 20.609375 20.515625 31.390625 
Q 20.515625 42.1875 17.390625 53.25 
Q 14.265625 64.3125 8.015625 75.875 
L 22.515625 75.875 
Q 29.9375 63.921875 33.515625 52.953125 
Q 37.109375 42 37.109375 31.296875 
Q 37.109375 20.609375 33.546875 9.734375 
Q 29.984375 -1.125 22.515625 -13.1875 
z
" id="DejaVuSans-Bold-29"/>
    </defs>
    <g transform="translate(576 306.815)scale(0.16 -0.16)">
     <use xlink:href="#DejaVuSans-Bold-28"/>
     <use x="45.703125" xlink:href="#DejaVuSans-Bold-64"/>
     <use x="117.285156" xlink:href="#DejaVuSans-Bold-29"/>
    </g>
   </g>
   <g id="text_7">
    <!-- Site distribution for ABIDE I subset -->
    <defs>
     <path d="M 53.515625 70.515625 
L 53.515625 60.890625 
Q 47.90625 63.578125 42.921875 64.890625 
Q 37.9375 66.21875 33.296875 66.21875 
Q 25.25 66.21875 20.875 63.09375 
Q 16.5 59.96875 16.5 54.203125 
Q 16.5 49.359375 19.40625 46.890625 
Q 22.3125 44.4375 30.421875 42.921875 
L 36.375 41.703125 
Q 47.40625 39.59375 52.65625 34.296875 
Q 57.90625 29 57.90625 20.125 
Q 57.90625 9.515625 50.796875 4.046875 
Q 43.703125 -1.421875 29.984375 -1.421875 
Q 24.8125 -1.421875 18.96875 -0.25 
Q 13.140625 0.921875 6.890625 3.21875 
L 6.890625 13.375 
Q 12.890625 10.015625 18.65625 8.296875 
Q 24.421875 6.59375 29.984375 6.59375 
Q 38.421875 6.59375 43.015625 9.90625 
Q 47.609375 13.234375 47.609375 19.390625 
Q 47.609375 24.75 44.3125 27.78125 
Q 41.015625 30.8125 33.5 32.328125 
L 27.484375 33.5 
Q 16.453125 35.6875 11.515625 40.375 
Q 6.59375 45.0625 6.59375 53.421875 
Q 6.59375 63.09375 13.40625 68.65625 
Q 20.21875 74.21875 32.171875 74.21875 
Q 37.3125 74.21875 42.625 73.28125 
Q 47.953125 72.359375 53.515625 70.515625 
z
" id="DejaVuSans-53"/>
     <path id="DejaVuSans-20"/>
     <path d="M 45.40625 46.390625 
L 45.40625 75.984375 
L 54.390625 75.984375 
L 54.390625 0 
L 45.40625 0 
L 45.40625 8.203125 
Q 42.578125 3.328125 38.25 0.953125 
Q 33.9375 -1.421875 27.875 -1.421875 
Q 17.96875 -1.421875 11.734375 6.484375 
Q 5.515625 14.40625 5.515625 27.296875 
Q 5.515625 40.1875 11.734375 48.09375 
Q 17.96875 56 27.875 56 
Q 33.9375 56 38.25 53.625 
Q 42.578125 51.265625 45.40625 46.390625 
z
M 14.796875 27.296875 
Q 14.796875 17.390625 18.875 11.75 
Q 22.953125 6.109375 30.078125 6.109375 
Q 37.203125 6.109375 41.296875 11.75 
Q 45.40625 17.390625 45.40625 27.296875 
Q 45.40625 37.203125 41.296875 42.84375 
Q 37.203125 48.484375 30.078125 48.484375 
Q 22.953125 48.484375 18.875 42.84375 
Q 14.796875 37.203125 14.796875 27.296875 
z
" id="DejaVuSans-64"/>
     <path d="M 30.609375 48.390625 
Q 23.390625 48.390625 19.1875 42.75 
Q 14.984375 37.109375 14.984375 27.296875 
Q 14.984375 17.484375 19.15625 11.84375 
Q 23.34375 6.203125 30.609375 6.203125 
Q 37.796875 6.203125 41.984375 11.859375 
Q 46.1875 17.53125 46.1875 27.296875 
Q 46.1875 37.015625 41.984375 42.703125 
Q 37.796875 48.390625 30.609375 48.390625 
z
M 30.609375 56 
Q 42.328125 56 49.015625 48.375 
Q 55.71875 40.765625 55.71875 27.296875 
Q 55.71875 13.875 49.015625 6.21875 
Q 42.328125 -1.421875 30.609375 -1.421875 
Q 18.84375 -1.421875 12.171875 6.21875 
Q 5.515625 13.875 5.515625 27.296875 
Q 5.515625 40.765625 12.171875 48.375 
Q 18.84375 56 30.609375 56 
z
" id="DejaVuSans-6f"/>
     <path d="M 54.890625 33.015625 
L 54.890625 0 
L 45.90625 0 
L 45.90625 32.71875 
Q 45.90625 40.484375 42.875 44.328125 
Q 39.84375 48.1875 33.796875 48.1875 
Q 26.515625 48.1875 22.3125 43.546875 
Q 18.109375 38.921875 18.109375 30.90625 
L 18.109375 0 
L 9.078125 0 
L 9.078125 54.6875 
L 18.109375 54.6875 
L 18.109375 46.1875 
Q 21.34375 51.125 25.703125 53.5625 
Q 30.078125 56 35.796875 56 
Q 45.21875 56 50.046875 50.171875 
Q 54.890625 44.34375 54.890625 33.015625 
z
" id="DejaVuSans-6e"/>
     <path d="M 37.109375 75.984375 
L 37.109375 68.5 
L 28.515625 68.5 
Q 23.6875 68.5 21.796875 66.546875 
Q 19.921875 64.59375 19.921875 59.515625 
L 19.921875 54.6875 
L 34.71875 54.6875 
L 34.71875 47.703125 
L 19.921875 47.703125 
L 19.921875 0 
L 10.890625 0 
L 10.890625 47.703125 
L 2.296875 47.703125 
L 2.296875 54.6875 
L 10.890625 54.6875 
L 10.890625 58.5 
Q 10.890625 67.625 15.140625 71.796875 
Q 19.390625 75.984375 28.609375 75.984375 
z
" id="DejaVuSans-66"/>
     <path d="M 34.1875 63.1875 
L 20.796875 26.90625 
L 47.609375 26.90625 
z
M 28.609375 72.90625 
L 39.796875 72.90625 
L 67.578125 0 
L 57.328125 0 
L 50.6875 18.703125 
L 17.828125 18.703125 
L 11.1875 0 
L 0.78125 0 
z
" id="DejaVuSans-41"/>
     <path d="M 19.671875 34.8125 
L 19.671875 8.109375 
L 35.5 8.109375 
Q 43.453125 8.109375 47.28125 11.40625 
Q 51.125 14.703125 51.125 21.484375 
Q 51.125 28.328125 47.28125 31.5625 
Q 43.453125 34.8125 35.5 34.8125 
z
M 19.671875 64.796875 
L 19.671875 42.828125 
L 34.28125 42.828125 
Q 41.5 42.828125 45.03125 45.53125 
Q 48.578125 48.25 48.578125 53.8125 
Q 48.578125 59.328125 45.03125 62.0625 
Q 41.5 64.796875 34.28125 64.796875 
z
M 9.8125 72.90625 
L 35.015625 72.90625 
Q 46.296875 72.90625 52.390625 68.21875 
Q 58.5 63.53125 58.5 54.890625 
Q 58.5 48.1875 55.375 44.234375 
Q 52.25 40.28125 46.1875 39.3125 
Q 53.46875 37.75 57.5 32.78125 
Q 61.53125 27.828125 61.53125 20.40625 
Q 61.53125 10.640625 54.890625 5.3125 
Q 48.25 0 35.984375 0 
L 9.8125 0 
z
" id="DejaVuSans-42"/>
     <path d="M 9.8125 72.90625 
L 19.671875 72.90625 
L 19.671875 0 
L 9.8125 0 
z
" id="DejaVuSans-49"/>
     <path d="M 19.671875 64.796875 
L 19.671875 8.109375 
L 31.59375 8.109375 
Q 46.6875 8.109375 53.6875 14.9375 
Q 60.6875 21.78125 60.6875 36.53125 
Q 60.6875 51.171875 53.6875 57.984375 
Q 46.6875 64.796875 31.59375 64.796875 
z
M 9.8125 72.90625 
L 30.078125 72.90625 
Q 51.265625 72.90625 61.171875 64.09375 
Q 71.09375 55.28125 71.09375 36.53125 
Q 71.09375 17.671875 61.125 8.828125 
Q 51.171875 0 30.078125 0 
L 9.8125 0 
z
" id="DejaVuSans-44"/>
     <path d="M 9.8125 72.90625 
L 55.90625 72.90625 
L 55.90625 64.59375 
L 19.671875 64.59375 
L 19.671875 43.015625 
L 54.390625 43.015625 
L 54.390625 34.71875 
L 19.671875 34.71875 
L 19.671875 8.296875 
L 56.78125 8.296875 
L 56.78125 0 
L 9.8125 0 
z
" id="DejaVuSans-45"/>
    </defs>
    <g transform="translate(152.85 296.4)scale(0.24 -0.24)">
     <use xlink:href="#DejaVuSans-53"/>
     <use x="63.476562" xlink:href="#DejaVuSans-69"/>
     <use x="91.259766" xlink:href="#DejaVuSans-74"/>
     <use x="130.46875" xlink:href="#DejaVuSans-65"/>
     <use x="191.992188" xlink:href="#DejaVuSans-20"/>
     <use x="223.779297" xlink:href="#DejaVuSans-64"/>
     <use x="287.255859" xlink:href="#DejaVuSans-69"/>
     <use x="315.039062" xlink:href="#DejaVuSans-73"/>
     <use x="367.138672" xlink:href="#DejaVuSans-74"/>
     <use x="406.347656" xlink:href="#DejaVuSans-72"/>
     <use x="447.460938" xlink:href="#DejaVuSans-69"/>
     <use x="475.244141" xlink:href="#DejaVuSans-62"/>
     <use x="538.720703" xlink:href="#DejaVuSans-75"/>
     <use x="602.099609" xlink:href="#DejaVuSans-74"/>
     <use x="641.308594" xlink:href="#DejaVuSans-69"/>
     <use x="669.091797" xlink:href="#DejaVuSans-6f"/>
     <use x="730.273438" xlink:href="#DejaVuSans-6e"/>
     <use x="793.652344" xlink:href="#DejaVuSans-20"/>
     <use x="825.439453" xlink:href="#DejaVuSans-66"/>
     <use x="860.644531" xlink:href="#DejaVuSans-6f"/>
     <use x="921.826172" xlink:href="#DejaVuSans-72"/>
     <use x="962.939453" xlink:href="#DejaVuSans-20"/>
     <use x="994.726562" xlink:href="#DejaVuSans-41"/>
     <use x="1063.134766" xlink:href="#DejaVuSans-42"/>
     <use x="1131.738281" xlink:href="#DejaVuSans-49"/>
     <use x="1161.230469" xlink:href="#DejaVuSans-44"/>
     <use x="1238.232422" xlink:href="#DejaVuSans-45"/>
     <use x="1301.416016" xlink:href="#DejaVuSans-20"/>
     <use x="1333.203125" xlink:href="#DejaVuSans-49"/>
     <use x="1362.695312" xlink:href="#DejaVuSans-20"/>
     <use x="1394.482422" xlink:href="#DejaVuSans-73"/>
     <use x="1446.582031" xlink:href="#DejaVuSans-75"/>
     <use x="1509.960938" xlink:href="#DejaVuSans-62"/>
     <use x="1573.4375" xlink:href="#DejaVuSans-73"/>
     <use x="1625.537109" xlink:href="#DejaVuSans-65"/>
     <use x="1687.060547" xlink:href="#DejaVuSans-74"/>
    </g>
   </g>
  </g>
  <g id="axes_2">
   <g id="patch_44">
    <path d="M 864 388.8 
L 1296 388.8 
L 1296 302.4 
L 864 302.4 
z
" style="fill:#ffffff;"/>
   </g>
   <g id="patch_45">
    <path clip-path="url(#p12687090a4)" d="M 864 378 
L 888.638783 378 
L 888.638783 356.4 
L 864 356.4 
z
" style="fill:#1f77b4;"/>
   </g>
   <g id="patch_46">
    <path clip-path="url(#p12687090a4)" d="M 864 334.8 
L 876 334.8 
L 876 313.2 
L 864 313.2 
z
" style="fill:#1f77b4;"/>
   </g>
   <g id="patch_47">
    <path clip-path="url(#p12687090a4)" d="M 888.638783 378 
L 908.34981 378 
L 908.34981 356.4 
L 888.638783 356.4 
z
" style="fill:#aec7e8;"/>
   </g>
   <g id="patch_48">
    <path clip-path="url(#p12687090a4)" d="M 876 334.8 
L 902.181818 334.8 
L 902.181818 313.2 
L 876 313.2 
z
" style="fill:#aec7e8;"/>
   </g>
   <g id="patch_49">
    <path clip-path="url(#p12687090a4)" d="M 908.34981 378 
L 939.558935 378 
L 939.558935 356.4 
L 908.34981 356.4 
z
" style="fill:#ffbb78;"/>
   </g>
   <g id="patch_50">
    <path clip-path="url(#p12687090a4)" d="M 902.181818 334.8 
L 943.636364 334.8 
L 943.636364 313.2 
L 902.181818 313.2 
z
" style="fill:#ffbb78;"/>
   </g>
   <g id="patch_51">
    <path clip-path="url(#p12687090a4)" d="M 939.558935 378 
L 955.984791 378 
L 955.984791 356.4 
L 939.558935 356.4 
z
" style="fill:#98df8a;"/>
   </g>
   <g id="patch_52">
    <path clip-path="url(#p12687090a4)" d="M 943.636364 334.8 
L 964.363636 334.8 
L 964.363636 313.2 
L 943.636364 313.2 
z
" style="fill:#98df8a;"/>
   </g>
   <g id="patch_53">
    <path clip-path="url(#p12687090a4)" d="M 955.984791 378 
L 977.338403 378 
L 977.338403 356.4 
L 955.984791 356.4 
z
" style="fill:#d62728;"/>
   </g>
   <g id="patch_54">
    <path clip-path="url(#p12687090a4)" d="M 964.363636 334.8 
L 989.454545 334.8 
L 989.454545 313.2 
L 964.363636 313.2 
z
" style="fill:#d62728;"/>
   </g>
   <g id="patch_55">
    <path clip-path="url(#p12687090a4)" d="M 977.338403 378 
L 1010.190114 378 
L 1010.190114 356.4 
L 977.338403 356.4 
z
" style="fill:#9467bd;"/>
   </g>
   <g id="patch_56">
    <path clip-path="url(#p12687090a4)" d="M 989.454545 334.8 
L 1010.181818 334.8 
L 1010.181818 313.2 
L 989.454545 313.2 
z
" style="fill:#9467bd;"/>
   </g>
   <g id="patch_57">
    <path clip-path="url(#p12687090a4)" d="M 1010.190114 378 
L 1038.114068 378 
L 1038.114068 356.4 
L 1010.190114 356.4 
z
" style="fill:#8c564b;"/>
   </g>
   <g id="patch_58">
    <path clip-path="url(#p12687090a4)" d="M 1010.181818 334.8 
L 1045.090909 334.8 
L 1045.090909 313.2 
L 1010.181818 313.2 
z
" style="fill:#8c564b;"/>
   </g>
   <g id="patch_59">
    <path clip-path="url(#p12687090a4)" d="M 1038.114068 378 
L 1095.604563 378 
L 1095.604563 356.4 
L 1038.114068 356.4 
z
" style="fill:#c49c94;"/>
   </g>
   <g id="patch_60">
    <path clip-path="url(#p12687090a4)" d="M 1045.090909 334.8 
L 1086.545455 334.8 
L 1086.545455 313.2 
L 1045.090909 313.2 
z
" style="fill:#c49c94;"/>
   </g>
   <g id="patch_61">
    <path clip-path="url(#p12687090a4)" d="M 1095.604563 378 
L 1113.673004 378 
L 1113.673004 356.4 
L 1095.604563 356.4 
z
" style="fill:#f7b6d2;"/>
   </g>
   <g id="patch_62">
    <path clip-path="url(#p12687090a4)" d="M 1086.545455 334.8 
L 1102.909091 334.8 
L 1102.909091 313.2 
L 1086.545455 313.2 
z
" style="fill:#f7b6d2;"/>
   </g>
   <g id="patch_63">
    <path clip-path="url(#p12687090a4)" d="M 1113.673004 378 
L 1177.73384 378 
L 1177.73384 356.4 
L 1113.673004 356.4 
z
" style="fill:#c7c7c7;"/>
   </g>
   <g id="patch_64">
    <path clip-path="url(#p12687090a4)" d="M 1102.909091 334.8 
L 1167.272727 334.8 
L 1167.272727 313.2 
L 1102.909091 313.2 
z
" style="fill:#c7c7c7;"/>
   </g>
   <g id="patch_65">
    <path clip-path="url(#p12687090a4)" d="M 1177.73384 378 
L 1187.589354 378 
L 1187.589354 356.4 
L 1177.73384 356.4 
z
" style="fill:#bcbd22;"/>
   </g>
   <g id="patch_66">
    <path clip-path="url(#p12687090a4)" d="M 1167.272727 334.8 
L 1197.818182 334.8 
L 1197.818182 313.2 
L 1167.272727 313.2 
z
" style="fill:#bcbd22;"/>
   </g>
   <g id="patch_67">
    <path clip-path="url(#p12687090a4)" d="M 1187.589354 378 
L 1250.007605 378 
L 1250.007605 356.4 
L 1187.589354 356.4 
z
" style="fill:#17becf;"/>
   </g>
   <g id="patch_68">
    <path clip-path="url(#p12687090a4)" d="M 1197.818182 334.8 
L 1265.454545 334.8 
L 1265.454545 313.2 
L 1197.818182 313.2 
z
" style="fill:#17becf;"/>
   </g>
   <g id="patch_69">
    <path clip-path="url(#p12687090a4)" d="M 1250.007605 378 
L 1296 378 
L 1296 356.4 
L 1250.007605 356.4 
z
" style="fill:#9edae5;"/>
   </g>
   <g id="patch_70">
    <path clip-path="url(#p12687090a4)" d="M 1265.454545 334.8 
L 1296 334.8 
L 1296 313.2 
L 1265.454545 313.2 
z
" style="fill:#9edae5;"/>
   </g>
   <g id="matplotlib.axis_3">
    <g id="xtick_4">
     <g id="line2d_6">
      <g>
       <use style="stroke:#000000;stroke-width:2.5;" x="864" xlink:href="#mcf5cca3402" y="393.8"/>
      </g>
     </g>
     <g id="text_8">
      <!-- 0.0 -->
      <g transform="translate(848.096875 417.496875)scale(0.2 -0.2)">
       <use xlink:href="#DejaVuSans-30"/>
       <use x="63.623047" xlink:href="#DejaVuSans-2e"/>
       <use x="95.410156" xlink:href="#DejaVuSans-30"/>
      </g>
     </g>
    </g>
    <g id="xtick_5">
     <g id="line2d_7">
      <g>
       <use style="stroke:#000000;stroke-width:2.5;" x="1080" xlink:href="#mcf5cca3402" y="393.8"/>
      </g>
     </g>
     <g id="text_9">
      <!-- 0.5 -->
      <g transform="translate(1064.096875 417.496875)scale(0.2 -0.2)">
       <use xlink:href="#DejaVuSans-30"/>
       <use x="63.623047" xlink:href="#DejaVuSans-2e"/>
       <use x="95.410156" xlink:href="#DejaVuSans-35"/>
      </g>
     </g>
    </g>
    <g id="xtick_6">
     <g id="line2d_8">
      <g>
       <use style="stroke:#000000;stroke-width:2.5;" x="1296" xlink:href="#mcf5cca3402" y="393.8"/>
      </g>
     </g>
     <g id="text_10">
      <!-- 1.0 -->
      <g transform="translate(1280.096875 417.496875)scale(0.2 -0.2)">
       <use xlink:href="#DejaVuSans-31"/>
       <use x="63.623047" xlink:href="#DejaVuSans-2e"/>
       <use x="95.410156" xlink:href="#DejaVuSans-30"/>
      </g>
     </g>
    </g>
   </g>
   <g id="matplotlib.axis_4">
    <g id="ytick_3">
     <g id="line2d_9"/>
     <g id="text_11">
      <!-- private -->
      <g transform="translate(789.784375 363.600625)scale(0.2 -0.2)">
       <use xlink:href="#DejaVuSans-70"/>
       <use x="63.476562" xlink:href="#DejaVuSans-72"/>
       <use x="104.589844" xlink:href="#DejaVuSans-69"/>
       <use x="132.373047" xlink:href="#DejaVuSans-76"/>
       <use x="191.552734" xlink:href="#DejaVuSans-61"/>
       <use x="252.832031" xlink:href="#DejaVuSans-74"/>
       <use x="292.041016" xlink:href="#DejaVuSans-65"/>
      </g>
      <!-- set -->
      <g transform="translate(829.934375 385.99625)scale(0.2 -0.2)">
       <use xlink:href="#DejaVuSans-73"/>
       <use x="52.099609" xlink:href="#DejaVuSans-65"/>
       <use x="113.623047" xlink:href="#DejaVuSans-74"/>
      </g>
     </g>
    </g>
    <g id="ytick_4">
     <g id="line2d_10"/>
     <g id="text_12">
      <!-- public -->
      <g transform="translate(800.321875 320.400625)scale(0.2 -0.2)">
       <use xlink:href="#DejaVuSans-70"/>
       <use x="63.476562" xlink:href="#DejaVuSans-75"/>
       <use x="126.855469" xlink:href="#DejaVuSans-62"/>
       <use x="190.332031" xlink:href="#DejaVuSans-6c"/>
       <use x="218.115234" xlink:href="#DejaVuSans-69"/>
       <use x="245.898438" xlink:href="#DejaVuSans-63"/>
      </g>
      <!-- set -->
      <g transform="translate(829.934375 342.79625)scale(0.2 -0.2)">
       <use xlink:href="#DejaVuSans-73"/>
       <use x="52.099609" xlink:href="#DejaVuSans-65"/>
       <use x="113.623047" xlink:href="#DejaVuSans-74"/>
      </g>
     </g>
    </g>
   </g>
   <g id="patch_71">
    <path d="M 864 393.8 
L 1296 393.8 
" style="fill:none;stroke:#000000;stroke-linecap:square;stroke-linejoin:miter;stroke-width:2.5;"/>
   </g>
   <g id="text_13">
    <!-- (e) -->
    <defs>
     <path d="M 62.984375 27.484375 
L 62.984375 22.515625 
L 22.125 22.515625 
Q 22.75 16.359375 26.5625 13.28125 
Q 30.375 10.203125 37.203125 10.203125 
Q 42.71875 10.203125 48.5 11.84375 
Q 54.296875 13.484375 60.40625 16.796875 
L 60.40625 3.328125 
Q 54.203125 0.984375 48 -0.21875 
Q 41.796875 -1.421875 35.59375 -1.421875 
Q 20.75 -1.421875 12.515625 6.125 
Q 4.296875 13.671875 4.296875 27.296875 
Q 4.296875 40.671875 12.375 48.328125 
Q 20.453125 56 34.625 56 
Q 47.515625 56 55.25 48.234375 
Q 62.984375 40.484375 62.984375 27.484375 
z
M 45.015625 33.296875 
Q 45.015625 38.28125 42.109375 41.328125 
Q 39.203125 44.390625 34.515625 44.390625 
Q 29.4375 44.390625 26.265625 41.53125 
Q 23.09375 38.671875 22.3125 33.296875 
z
" id="DejaVuSans-Bold-65"/>
    </defs>
    <g transform="translate(1296 306.815)scale(0.16 -0.16)">
     <use xlink:href="#DejaVuSans-Bold-28"/>
     <use x="45.703125" xlink:href="#DejaVuSans-Bold-65"/>
     <use x="113.525391" xlink:href="#DejaVuSans-Bold-29"/>
    </g>
   </g>
   <g id="text_14">
    <!-- Site distribution for ABIDE II subset -->
    <g transform="translate(869.31 296.4)scale(0.24 -0.24)">
     <use xlink:href="#DejaVuSans-53"/>
     <use x="63.476562" xlink:href="#DejaVuSans-69"/>
     <use x="91.259766" xlink:href="#DejaVuSans-74"/>
     <use x="130.46875" xlink:href="#DejaVuSans-65"/>
     <use x="191.992188" xlink:href="#DejaVuSans-20"/>
     <use x="223.779297" xlink:href="#DejaVuSans-64"/>
     <use x="287.255859" xlink:href="#DejaVuSans-69"/>
     <use x="315.039062" xlink:href="#DejaVuSans-73"/>
     <use x="367.138672" xlink:href="#DejaVuSans-74"/>
     <use x="406.347656" xlink:href="#DejaVuSans-72"/>
     <use x="447.460938" xlink:href="#DejaVuSans-69"/>
     <use x="475.244141" xlink:href="#DejaVuSans-62"/>
     <use x="538.720703" xlink:href="#DejaVuSans-75"/>
     <use x="602.099609" xlink:href="#DejaVuSans-74"/>
     <use x="641.308594" xlink:href="#DejaVuSans-69"/>
     <use x="669.091797" xlink:href="#DejaVuSans-6f"/>
     <use x="730.273438" xlink:href="#DejaVuSans-6e"/>
     <use x="793.652344" xlink:href="#DejaVuSans-20"/>
     <use x="825.439453" xlink:href="#DejaVuSans-66"/>
     <use x="860.644531" xlink:href="#DejaVuSans-6f"/>
     <use x="921.826172" xlink:href="#DejaVuSans-72"/>
     <use x="962.939453" xlink:href="#DejaVuSans-20"/>
     <use x="994.726562" xlink:href="#DejaVuSans-41"/>
     <use x="1063.134766" xlink:href="#DejaVuSans-42"/>
     <use x="1131.738281" xlink:href="#DejaVuSans-49"/>
     <use x="1161.230469" xlink:href="#DejaVuSans-44"/>
     <use x="1238.232422" xlink:href="#DejaVuSans-45"/>
     <use x="1301.416016" xlink:href="#DejaVuSans-20"/>
     <use x="1333.203125" xlink:href="#DejaVuSans-49"/>
     <use x="1362.695312" xlink:href="#DejaVuSans-49"/>
     <use x="1392.1875" xlink:href="#DejaVuSans-20"/>
     <use x="1423.974609" xlink:href="#DejaVuSans-73"/>
     <use x="1476.074219" xlink:href="#DejaVuSans-75"/>
     <use x="1539.453125" xlink:href="#DejaVuSans-62"/>
     <use x="1602.929688" xlink:href="#DejaVuSans-73"/>
     <use x="1655.029297" xlink:href="#DejaVuSans-65"/>
     <use x="1716.552734" xlink:href="#DejaVuSans-74"/>
    </g>
   </g>
  </g>
  <g id="axes_3">
   <g id="patch_72">
    <path d="M 72 216 
L 432 216 
L 432 43.2 
L 72 43.2 
z
" style="fill:#ffffff;"/>
   </g>
   <g id="patch_73">
    <path clip-path="url(#pcab04207e7)" d="M 72 194.4 
L 285.143438 194.4 
L 285.143438 151.2 
L 72 151.2 
z
" style="fill:#1f77b4;"/>
   </g>
   <g id="patch_74">
    <path clip-path="url(#pcab04207e7)" d="M 72 108 
L 258.118068 108 
L 258.118068 64.8 
L 72 64.8 
z
" style="fill:#1f77b4;"/>
   </g>
   <g id="patch_75">
    <path clip-path="url(#pcab04207e7)" d="M 285.143438 194.4 
L 432 194.4 
L 432 151.2 
L 285.143438 151.2 
z
" style="fill:#ff7f0e;"/>
   </g>
   <g id="patch_76">
    <path clip-path="url(#pcab04207e7)" d="M 258.118068 108 
L 432 108 
L 432 64.8 
L 258.118068 64.8 
z
" style="fill:#ff7f0e;"/>
   </g>
   <g id="matplotlib.axis_5">
    <g id="xtick_7">
     <g id="line2d_11">
      <g>
       <use style="stroke:#000000;stroke-width:2.5;" x="72" xlink:href="#mcf5cca3402" y="221"/>
      </g>
     </g>
     <g id="text_15">
      <!-- 0.0 -->
      <g transform="translate(56.096875 244.696875)scale(0.2 -0.2)">
       <use xlink:href="#DejaVuSans-30"/>
       <use x="63.623047" xlink:href="#DejaVuSans-2e"/>
       <use x="95.410156" xlink:href="#DejaVuSans-30"/>
      </g>
     </g>
    </g>
    <g id="xtick_8">
     <g id="line2d_12">
      <g>
       <use style="stroke:#000000;stroke-width:2.5;" x="252" xlink:href="#mcf5cca3402" y="221"/>
      </g>
     </g>
     <g id="text_16">
      <!-- 0.5 -->
      <g transform="translate(236.096875 244.696875)scale(0.2 -0.2)">
       <use xlink:href="#DejaVuSans-30"/>
       <use x="63.623047" xlink:href="#DejaVuSans-2e"/>
       <use x="95.410156" xlink:href="#DejaVuSans-35"/>
      </g>
     </g>
    </g>
    <g id="xtick_9">
     <g id="line2d_13">
      <g>
       <use style="stroke:#000000;stroke-width:2.5;" x="432" xlink:href="#mcf5cca3402" y="221"/>
      </g>
     </g>
     <g id="text_17">
      <!-- 1.0 -->
      <g transform="translate(416.096875 244.696875)scale(0.2 -0.2)">
       <use xlink:href="#DejaVuSans-31"/>
       <use x="63.623047" xlink:href="#DejaVuSans-2e"/>
       <use x="95.410156" xlink:href="#DejaVuSans-30"/>
      </g>
     </g>
    </g>
   </g>
   <g id="matplotlib.axis_6">
    <g id="ytick_5">
     <g id="line2d_14"/>
     <g id="text_18">
      <!-- private -->
      <g transform="translate(-2.215625 169.200625)scale(0.2 -0.2)">
       <use xlink:href="#DejaVuSans-70"/>
       <use x="63.476562" xlink:href="#DejaVuSans-72"/>
       <use x="104.589844" xlink:href="#DejaVuSans-69"/>
       <use x="132.373047" xlink:href="#DejaVuSans-76"/>
       <use x="191.552734" xlink:href="#DejaVuSans-61"/>
       <use x="252.832031" xlink:href="#DejaVuSans-74"/>
       <use x="292.041016" xlink:href="#DejaVuSans-65"/>
      </g>
      <!-- set -->
      <g transform="translate(37.934375 191.59625)scale(0.2 -0.2)">
       <use xlink:href="#DejaVuSans-73"/>
       <use x="52.099609" xlink:href="#DejaVuSans-65"/>
       <use x="113.623047" xlink:href="#DejaVuSans-74"/>
      </g>
     </g>
    </g>
    <g id="ytick_6">
     <g id="line2d_15"/>
     <g id="text_19">
      <!-- public -->
      <g transform="translate(8.321875 82.800625)scale(0.2 -0.2)">
       <use xlink:href="#DejaVuSans-70"/>
       <use x="63.476562" xlink:href="#DejaVuSans-75"/>
       <use x="126.855469" xlink:href="#DejaVuSans-62"/>
       <use x="190.332031" xlink:href="#DejaVuSans-6c"/>
       <use x="218.115234" xlink:href="#DejaVuSans-69"/>
       <use x="245.898438" xlink:href="#DejaVuSans-63"/>
      </g>
      <!-- set -->
      <g transform="translate(37.934375 105.19625)scale(0.2 -0.2)">
       <use xlink:href="#DejaVuSans-73"/>
       <use x="52.099609" xlink:href="#DejaVuSans-65"/>
       <use x="113.623047" xlink:href="#DejaVuSans-74"/>
      </g>
     </g>
    </g>
   </g>
   <g id="patch_77">
    <path d="M 72 221 
L 432 221 
" style="fill:none;stroke:#000000;stroke-linecap:square;stroke-linejoin:miter;stroke-width:2.5;"/>
   </g>
   <g id="text_20">
    <!-- n=582 -->
    <defs>
     <path d="M 10.59375 45.40625 
L 73.1875 45.40625 
L 73.1875 37.203125 
L 10.59375 37.203125 
z
M 10.59375 25.484375 
L 73.1875 25.484375 
L 73.1875 17.1875 
L 10.59375 17.1875 
z
" id="DejaVuSans-3d"/>
     <path d="M 31.78125 34.625 
Q 24.75 34.625 20.71875 30.859375 
Q 16.703125 27.09375 16.703125 20.515625 
Q 16.703125 13.921875 20.71875 10.15625 
Q 24.75 6.390625 31.78125 6.390625 
Q 38.8125 6.390625 42.859375 10.171875 
Q 46.921875 13.96875 46.921875 20.515625 
Q 46.921875 27.09375 42.890625 30.859375 
Q 38.875 34.625 31.78125 34.625 
z
M 21.921875 38.8125 
Q 15.578125 40.375 12.03125 44.71875 
Q 8.5 49.078125 8.5 55.328125 
Q 8.5 64.0625 14.71875 69.140625 
Q 20.953125 74.21875 31.78125 74.21875 
Q 42.671875 74.21875 48.875 69.140625 
Q 55.078125 64.0625 55.078125 55.328125 
Q 55.078125 49.078125 51.53125 44.71875 
Q 48 40.375 41.703125 38.8125 
Q 48.828125 37.15625 52.796875 32.3125 
Q 56.78125 27.484375 56.78125 20.515625 
Q 56.78125 9.90625 50.3125 4.234375 
Q 43.84375 -1.421875 31.78125 -1.421875 
Q 19.734375 -1.421875 13.25 4.234375 
Q 6.78125 9.90625 6.78125 20.515625 
Q 6.78125 27.484375 10.78125 32.3125 
Q 14.796875 37.15625 21.921875 38.8125 
z
M 18.3125 54.390625 
Q 18.3125 48.734375 21.84375 45.5625 
Q 25.390625 42.390625 31.78125 42.390625 
Q 38.140625 42.390625 41.71875 45.5625 
Q 45.3125 48.734375 45.3125 54.390625 
Q 45.3125 60.0625 41.71875 63.234375 
Q 38.140625 66.40625 31.78125 66.40625 
Q 25.390625 66.40625 21.84375 63.234375 
Q 18.3125 60.0625 18.3125 54.390625 
z
" id="DejaVuSans-38"/>
     <path d="M 19.1875 8.296875 
L 53.609375 8.296875 
L 53.609375 0 
L 7.328125 0 
L 7.328125 8.296875 
Q 12.9375 14.109375 22.625 23.890625 
Q 32.328125 33.6875 34.8125 36.53125 
Q 39.546875 41.84375 41.421875 45.53125 
Q 43.3125 49.21875 43.3125 52.78125 
Q 43.3125 58.59375 39.234375 62.25 
Q 35.15625 65.921875 28.609375 65.921875 
Q 23.96875 65.921875 18.8125 64.3125 
Q 13.671875 62.703125 7.8125 59.421875 
L 7.8125 69.390625 
Q 13.765625 71.78125 18.9375 73 
Q 24.125 74.21875 28.421875 74.21875 
Q 39.75 74.21875 46.484375 68.546875 
Q 53.21875 62.890625 53.21875 53.421875 
Q 53.21875 48.921875 51.53125 44.890625 
Q 49.859375 40.875 45.40625 35.40625 
Q 44.1875 33.984375 37.640625 27.21875 
Q 31.109375 20.453125 19.1875 8.296875 
z
" id="DejaVuSans-32"/>
    </defs>
    <g transform="translate(142.571719 177.12)scale(0.2 -0.2)">
     <use xlink:href="#DejaVuSans-6e"/>
     <use x="63.378906" xlink:href="#DejaVuSans-3d"/>
     <use x="147.167969" xlink:href="#DejaVuSans-35"/>
     <use x="210.791016" xlink:href="#DejaVuSans-38"/>
     <use x="274.414062" xlink:href="#DejaVuSans-32"/>
    </g>
   </g>
   <g id="text_21">
    <!-- n=578 -->
    <defs>
     <path d="M 8.203125 72.90625 
L 55.078125 72.90625 
L 55.078125 68.703125 
L 28.609375 0 
L 18.3125 0 
L 43.21875 64.59375 
L 8.203125 64.59375 
z
" id="DejaVuSans-37"/>
    </defs>
    <g transform="translate(129.059034 90.72)scale(0.2 -0.2)">
     <use xlink:href="#DejaVuSans-6e"/>
     <use x="63.378906" xlink:href="#DejaVuSans-3d"/>
     <use x="147.167969" xlink:href="#DejaVuSans-35"/>
     <use x="210.791016" xlink:href="#DejaVuSans-37"/>
     <use x="274.414062" xlink:href="#DejaVuSans-38"/>
    </g>
   </g>
   <g id="text_22">
    <!-- n=401 -->
    <defs>
     <path d="M 37.796875 64.3125 
L 12.890625 25.390625 
L 37.796875 25.390625 
z
M 35.203125 72.90625 
L 47.609375 72.90625 
L 47.609375 25.390625 
L 58.015625 25.390625 
L 58.015625 17.1875 
L 47.609375 17.1875 
L 47.609375 0 
L 37.796875 0 
L 37.796875 17.1875 
L 4.890625 17.1875 
L 4.890625 26.703125 
z
" id="DejaVuSans-34"/>
    </defs>
    <g transform="translate(322.571719 177.12)scale(0.2 -0.2)">
     <use xlink:href="#DejaVuSans-6e"/>
     <use x="63.378906" xlink:href="#DejaVuSans-3d"/>
     <use x="147.167969" xlink:href="#DejaVuSans-34"/>
     <use x="210.791016" xlink:href="#DejaVuSans-30"/>
     <use x="274.414062" xlink:href="#DejaVuSans-31"/>
    </g>
   </g>
   <g id="text_23">
    <!-- n=540 -->
    <g transform="translate(309.059034 90.72)scale(0.2 -0.2)">
     <use xlink:href="#DejaVuSans-6e"/>
     <use x="63.378906" xlink:href="#DejaVuSans-3d"/>
     <use x="147.167969" xlink:href="#DejaVuSans-35"/>
     <use x="210.791016" xlink:href="#DejaVuSans-34"/>
     <use x="274.414062" xlink:href="#DejaVuSans-30"/>
    </g>
   </g>
   <g id="text_24">
    <!-- n=983 -->
    <defs>
     <path d="M 10.984375 1.515625 
L 10.984375 10.5 
Q 14.703125 8.734375 18.5 7.8125 
Q 22.3125 6.890625 25.984375 6.890625 
Q 35.75 6.890625 40.890625 13.453125 
Q 46.046875 20.015625 46.78125 33.40625 
Q 43.953125 29.203125 39.59375 26.953125 
Q 35.25 24.703125 29.984375 24.703125 
Q 19.046875 24.703125 12.671875 31.3125 
Q 6.296875 37.9375 6.296875 49.421875 
Q 6.296875 60.640625 12.9375 67.421875 
Q 19.578125 74.21875 30.609375 74.21875 
Q 43.265625 74.21875 49.921875 64.515625 
Q 56.59375 54.828125 56.59375 36.375 
Q 56.59375 19.140625 48.40625 8.859375 
Q 40.234375 -1.421875 26.421875 -1.421875 
Q 22.703125 -1.421875 18.890625 -0.6875 
Q 15.09375 0.046875 10.984375 1.515625 
z
M 30.609375 32.421875 
Q 37.25 32.421875 41.125 36.953125 
Q 45.015625 41.5 45.015625 49.421875 
Q 45.015625 57.28125 41.125 61.84375 
Q 37.25 66.40625 30.609375 66.40625 
Q 23.96875 66.40625 20.09375 61.84375 
Q 16.21875 57.28125 16.21875 49.421875 
Q 16.21875 41.5 20.09375 36.953125 
Q 23.96875 32.421875 30.609375 32.421875 
z
" id="DejaVuSans-39"/>
     <path d="M 40.578125 39.3125 
Q 47.65625 37.796875 51.625 33 
Q 55.609375 28.21875 55.609375 21.1875 
Q 55.609375 10.40625 48.1875 4.484375 
Q 40.765625 -1.421875 27.09375 -1.421875 
Q 22.515625 -1.421875 17.65625 -0.515625 
Q 12.796875 0.390625 7.625 2.203125 
L 7.625 11.71875 
Q 11.71875 9.328125 16.59375 8.109375 
Q 21.484375 6.890625 26.8125 6.890625 
Q 36.078125 6.890625 40.9375 10.546875 
Q 45.796875 14.203125 45.796875 21.1875 
Q 45.796875 27.640625 41.28125 31.265625 
Q 36.765625 34.90625 28.71875 34.90625 
L 20.21875 34.90625 
L 20.21875 43.015625 
L 29.109375 43.015625 
Q 36.375 43.015625 40.234375 45.921875 
Q 44.09375 48.828125 44.09375 54.296875 
Q 44.09375 59.90625 40.109375 62.90625 
Q 36.140625 65.921875 28.71875 65.921875 
Q 24.65625 65.921875 20.015625 65.03125 
Q 15.375 64.15625 9.8125 62.3125 
L 9.8125 71.09375 
Q 15.4375 72.65625 20.34375 73.4375 
Q 25.25 74.21875 29.59375 74.21875 
Q 40.828125 74.21875 47.359375 69.109375 
Q 53.90625 64.015625 53.90625 55.328125 
Q 53.90625 49.265625 50.4375 45.09375 
Q 46.96875 40.921875 40.578125 39.3125 
z
" id="DejaVuSans-33"/>
    </defs>
    <g transform="translate(72 146.016)scale(0.2 -0.2)">
     <use xlink:href="#DejaVuSans-6e"/>
     <use x="63.378906" xlink:href="#DejaVuSans-3d"/>
     <use x="147.167969" xlink:href="#DejaVuSans-39"/>
     <use x="210.791016" xlink:href="#DejaVuSans-38"/>
     <use x="274.414062" xlink:href="#DejaVuSans-33"/>
    </g>
   </g>
   <g id="text_25">
    <!-- n=1118 -->
    <g transform="translate(72 59.616)scale(0.2 -0.2)">
     <use xlink:href="#DejaVuSans-6e"/>
     <use x="63.378906" xlink:href="#DejaVuSans-3d"/>
     <use x="147.167969" xlink:href="#DejaVuSans-31"/>
     <use x="210.791016" xlink:href="#DejaVuSans-31"/>
     <use x="274.414062" xlink:href="#DejaVuSans-31"/>
     <use x="338.037109" xlink:href="#DejaVuSans-38"/>
    </g>
   </g>
   <g id="text_26">
    <!-- (a) -->
    <defs>
     <path d="M 32.90625 24.609375 
Q 27.4375 24.609375 24.671875 22.75 
Q 21.921875 20.90625 21.921875 17.28125 
Q 21.921875 13.96875 24.140625 12.078125 
Q 26.375 10.203125 30.328125 10.203125 
Q 35.25 10.203125 38.625 13.734375 
Q 42 17.28125 42 22.609375 
L 42 24.609375 
z
M 59.625 31.203125 
L 59.625 0 
L 42 0 
L 42 8.109375 
Q 38.484375 3.125 34.078125 0.84375 
Q 29.6875 -1.421875 23.390625 -1.421875 
Q 14.890625 -1.421875 9.59375 3.53125 
Q 4.296875 8.5 4.296875 16.40625 
Q 4.296875 26.03125 10.90625 30.515625 
Q 17.53125 35.015625 31.6875 35.015625 
L 42 35.015625 
L 42 36.375 
Q 42 40.53125 38.71875 42.453125 
Q 35.453125 44.390625 28.515625 44.390625 
Q 22.90625 44.390625 18.0625 43.265625 
Q 13.234375 42.140625 9.078125 39.890625 
L 9.078125 53.21875 
Q 14.703125 54.59375 20.359375 55.296875 
Q 26.03125 56 31.6875 56 
Q 46.484375 56 53.046875 50.171875 
Q 59.625 44.34375 59.625 31.203125 
z
" id="DejaVuSans-Bold-61"/>
    </defs>
    <g transform="translate(403.2 47.615)scale(0.16 -0.16)">
     <use xlink:href="#DejaVuSans-Bold-28"/>
     <use x="45.703125" xlink:href="#DejaVuSans-Bold-61"/>
     <use x="113.183594" xlink:href="#DejaVuSans-Bold-29"/>
    </g>
   </g>
   <g id="text_27">
    <!-- Subjects distribution -->
    <defs>
     <path d="M 9.421875 54.6875 
L 18.40625 54.6875 
L 18.40625 -0.984375 
Q 18.40625 -11.421875 14.421875 -16.109375 
Q 10.453125 -20.796875 1.609375 -20.796875 
L -1.8125 -20.796875 
L -1.8125 -13.1875 
L 0.59375 -13.1875 
Q 5.71875 -13.1875 7.5625 -10.8125 
Q 9.421875 -8.453125 9.421875 -0.984375 
z
M 9.421875 75.984375 
L 18.40625 75.984375 
L 18.40625 64.59375 
L 9.421875 64.59375 
z
" id="DejaVuSans-6a"/>
    </defs>
    <g transform="translate(128.690625 37.2)scale(0.24 -0.24)">
     <use xlink:href="#DejaVuSans-53"/>
     <use x="63.476562" xlink:href="#DejaVuSans-75"/>
     <use x="126.855469" xlink:href="#DejaVuSans-62"/>
     <use x="190.332031" xlink:href="#DejaVuSans-6a"/>
     <use x="218.115234" xlink:href="#DejaVuSans-65"/>
     <use x="279.638672" xlink:href="#DejaVuSans-63"/>
     <use x="334.619141" xlink:href="#DejaVuSans-74"/>
     <use x="373.828125" xlink:href="#DejaVuSans-73"/>
     <use x="425.927734" xlink:href="#DejaVuSans-20"/>
     <use x="457.714844" xlink:href="#DejaVuSans-64"/>
     <use x="521.191406" xlink:href="#DejaVuSans-69"/>
     <use x="548.974609" xlink:href="#DejaVuSans-73"/>
     <use x="601.074219" xlink:href="#DejaVuSans-74"/>
     <use x="640.283203" xlink:href="#DejaVuSans-72"/>
     <use x="681.396484" xlink:href="#DejaVuSans-69"/>
     <use x="709.179688" xlink:href="#DejaVuSans-62"/>
     <use x="772.65625" xlink:href="#DejaVuSans-75"/>
     <use x="836.035156" xlink:href="#DejaVuSans-74"/>
     <use x="875.244141" xlink:href="#DejaVuSans-69"/>
     <use x="903.027344" xlink:href="#DejaVuSans-6f"/>
     <use x="964.208984" xlink:href="#DejaVuSans-6e"/>
    </g>
   </g>
   <g id="legend_1">
    <g id="patch_78">
     <path d="M 163.8 123.188438 
L 191.8 123.188438 
L 191.8 113.388438 
L 163.8 113.388438 
z
" style="fill:#1f77b4;"/>
    </g>
    <g id="text_28">
     <!-- Control -->
     <defs>
      <path d="M 64.40625 67.28125 
L 64.40625 56.890625 
Q 59.421875 61.53125 53.78125 63.8125 
Q 48.140625 66.109375 41.796875 66.109375 
Q 29.296875 66.109375 22.65625 58.46875 
Q 16.015625 50.828125 16.015625 36.375 
Q 16.015625 21.96875 22.65625 14.328125 
Q 29.296875 6.6875 41.796875 6.6875 
Q 48.140625 6.6875 53.78125 8.984375 
Q 59.421875 11.28125 64.40625 15.921875 
L 64.40625 5.609375 
Q 59.234375 2.09375 53.4375 0.328125 
Q 47.65625 -1.421875 41.21875 -1.421875 
Q 24.65625 -1.421875 15.125 8.703125 
Q 5.609375 18.84375 5.609375 36.375 
Q 5.609375 53.953125 15.125 64.078125 
Q 24.65625 74.21875 41.21875 74.21875 
Q 47.75 74.21875 53.53125 72.484375 
Q 59.328125 70.75 64.40625 67.28125 
z
" id="DejaVuSans-43"/>
     </defs>
     <g transform="translate(203 123.188438)scale(0.14 -0.14)">
      <use xlink:href="#DejaVuSans-43"/>
      <use x="69.824219" xlink:href="#DejaVuSans-6f"/>
      <use x="131.005859" xlink:href="#DejaVuSans-6e"/>
      <use x="194.384766" xlink:href="#DejaVuSans-74"/>
      <use x="233.59375" xlink:href="#DejaVuSans-72"/>
      <use x="274.675781" xlink:href="#DejaVuSans-6f"/>
      <use x="335.857422" xlink:href="#DejaVuSans-6c"/>
     </g>
    </g>
    <g id="patch_79">
     <path d="M 163.8 143.737813 
L 191.8 143.737813 
L 191.8 133.937813 
L 163.8 133.937813 
z
" style="fill:#ff7f0e;"/>
    </g>
    <g id="text_29">
     <!-- Autism Spectrum Disorder -->
     <defs>
      <path d="M 52 44.1875 
Q 55.375 50.25 60.0625 53.125 
Q 64.75 56 71.09375 56 
Q 79.640625 56 84.28125 50.015625 
Q 88.921875 44.046875 88.921875 33.015625 
L 88.921875 0 
L 79.890625 0 
L 79.890625 32.71875 
Q 79.890625 40.578125 77.09375 44.375 
Q 74.3125 48.1875 68.609375 48.1875 
Q 61.625 48.1875 57.5625 43.546875 
Q 53.515625 38.921875 53.515625 30.90625 
L 53.515625 0 
L 44.484375 0 
L 44.484375 32.71875 
Q 44.484375 40.625 41.703125 44.40625 
Q 38.921875 48.1875 33.109375 48.1875 
Q 26.21875 48.1875 22.15625 43.53125 
Q 18.109375 38.875 18.109375 30.90625 
L 18.109375 0 
L 9.078125 0 
L 9.078125 54.6875 
L 18.109375 54.6875 
L 18.109375 46.1875 
Q 21.1875 51.21875 25.484375 53.609375 
Q 29.78125 56 35.6875 56 
Q 41.65625 56 45.828125 52.96875 
Q 50 49.953125 52 44.1875 
z
" id="DejaVuSans-6d"/>
     </defs>
     <g transform="translate(203 143.737813)scale(0.14 -0.14)">
      <use xlink:href="#DejaVuSans-41"/>
      <use x="68.408203" xlink:href="#DejaVuSans-75"/>
      <use x="131.787109" xlink:href="#DejaVuSans-74"/>
      <use x="170.996094" xlink:href="#DejaVuSans-69"/>
      <use x="198.779297" xlink:href="#DejaVuSans-73"/>
      <use x="250.878906" xlink:href="#DejaVuSans-6d"/>
      <use x="348.291016" xlink:href="#DejaVuSans-20"/>
      <use x="380.078125" xlink:href="#DejaVuSans-53"/>
      <use x="443.554688" xlink:href="#DejaVuSans-70"/>
      <use x="507.03125" xlink:href="#DejaVuSans-65"/>
      <use x="568.554688" xlink:href="#DejaVuSans-63"/>
      <use x="623.535156" xlink:href="#DejaVuSans-74"/>
      <use x="662.744141" xlink:href="#DejaVuSans-72"/>
      <use x="703.857422" xlink:href="#DejaVuSans-75"/>
      <use x="767.236328" xlink:href="#DejaVuSans-6d"/>
      <use x="864.648438" xlink:href="#DejaVuSans-20"/>
      <use x="896.435547" xlink:href="#DejaVuSans-44"/>
      <use x="973.4375" xlink:href="#DejaVuSans-69"/>
      <use x="1001.220703" xlink:href="#DejaVuSans-73"/>
      <use x="1053.320312" xlink:href="#DejaVuSans-6f"/>
      <use x="1114.501953" xlink:href="#DejaVuSans-72"/>
      <use x="1155.599609" xlink:href="#DejaVuSans-64"/>
      <use x="1219.076172" xlink:href="#DejaVuSans-65"/>
      <use x="1280.599609" xlink:href="#DejaVuSans-72"/>
     </g>
    </g>
   </g>
  </g>
  <g id="axes_4">
   <g id="patch_80">
    <path d="M 561.6 216 
L 921.6 216 
L 921.6 43.2 
L 561.6 43.2 
z
" style="fill:#ffffff;"/>
   </g>
   <g id="patch_81">
    <path clip-path="url(#pe5f1da27e0)" d="M 561.6 194.4 
L 834.804476 194.4 
L 834.804476 151.2 
L 561.6 151.2 
z
" style="fill:#1f77b4;"/>
   </g>
   <g id="patch_82">
    <path clip-path="url(#pe5f1da27e0)" d="M 561.6 108 
L 853.335242 108 
L 853.335242 64.8 
L 561.6 64.8 
z
" style="fill:#1f77b4;"/>
   </g>
   <g id="patch_83">
    <path clip-path="url(#pe5f1da27e0)" d="M 834.804476 194.4 
L 921.6 194.4 
L 921.6 151.2 
L 834.804476 151.2 
z
" style="fill:#ff7f0e;"/>
   </g>
   <g id="patch_84">
    <path clip-path="url(#pe5f1da27e0)" d="M 853.335242 108 
L 921.6 108 
L 921.6 64.8 
L 853.335242 64.8 
z
" style="fill:#ff7f0e;"/>
   </g>
   <g id="matplotlib.axis_7">
    <g id="xtick_10">
     <g id="line2d_16">
      <g>
       <use style="stroke:#000000;stroke-width:2.5;" x="561.6" xlink:href="#mcf5cca3402" y="221"/>
      </g>
     </g>
     <g id="text_30">
      <!-- 0.0 -->
      <g transform="translate(545.696875 244.696875)scale(0.2 -0.2)">
       <use xlink:href="#DejaVuSans-30"/>
       <use x="63.623047" xlink:href="#DejaVuSans-2e"/>
       <use x="95.410156" xlink:href="#DejaVuSans-30"/>
      </g>
     </g>
    </g>
    <g id="xtick_11">
     <g id="line2d_17">
      <g>
       <use style="stroke:#000000;stroke-width:2.5;" x="741.6" xlink:href="#mcf5cca3402" y="221"/>
      </g>
     </g>
     <g id="text_31">
      <!-- 0.5 -->
      <g transform="translate(725.696875 244.696875)scale(0.2 -0.2)">
       <use xlink:href="#DejaVuSans-30"/>
       <use x="63.623047" xlink:href="#DejaVuSans-2e"/>
       <use x="95.410156" xlink:href="#DejaVuSans-35"/>
      </g>
     </g>
    </g>
    <g id="xtick_12">
     <g id="line2d_18">
      <g>
       <use style="stroke:#000000;stroke-width:2.5;" x="921.6" xlink:href="#mcf5cca3402" y="221"/>
      </g>
     </g>
     <g id="text_32">
      <!-- 1.0 -->
      <g transform="translate(905.696875 244.696875)scale(0.2 -0.2)">
       <use xlink:href="#DejaVuSans-31"/>
       <use x="63.623047" xlink:href="#DejaVuSans-2e"/>
       <use x="95.410156" xlink:href="#DejaVuSans-30"/>
      </g>
     </g>
    </g>
   </g>
   <g id="matplotlib.axis_8">
    <g id="ytick_7">
     <g id="line2d_19"/>
     <g id="text_33">
      <!-- private -->
      <g transform="translate(487.384375 169.200625)scale(0.2 -0.2)">
       <use xlink:href="#DejaVuSans-70"/>
       <use x="63.476562" xlink:href="#DejaVuSans-72"/>
       <use x="104.589844" xlink:href="#DejaVuSans-69"/>
       <use x="132.373047" xlink:href="#DejaVuSans-76"/>
       <use x="191.552734" xlink:href="#DejaVuSans-61"/>
       <use x="252.832031" xlink:href="#DejaVuSans-74"/>
       <use x="292.041016" xlink:href="#DejaVuSans-65"/>
      </g>
      <!-- set -->
      <g transform="translate(527.534375 191.59625)scale(0.2 -0.2)">
       <use xlink:href="#DejaVuSans-73"/>
       <use x="52.099609" xlink:href="#DejaVuSans-65"/>
       <use x="113.623047" xlink:href="#DejaVuSans-74"/>
      </g>
     </g>
    </g>
    <g id="ytick_8">
     <g id="line2d_20"/>
     <g id="text_34">
      <!-- public -->
      <g transform="translate(497.921875 82.800625)scale(0.2 -0.2)">
       <use xlink:href="#DejaVuSans-70"/>
       <use x="63.476562" xlink:href="#DejaVuSans-75"/>
       <use x="126.855469" xlink:href="#DejaVuSans-62"/>
       <use x="190.332031" xlink:href="#DejaVuSans-6c"/>
       <use x="218.115234" xlink:href="#DejaVuSans-69"/>
       <use x="245.898438" xlink:href="#DejaVuSans-63"/>
      </g>
      <!-- set -->
      <g transform="translate(527.534375 105.19625)scale(0.2 -0.2)">
       <use xlink:href="#DejaVuSans-73"/>
       <use x="52.099609" xlink:href="#DejaVuSans-65"/>
       <use x="113.623047" xlink:href="#DejaVuSans-74"/>
      </g>
     </g>
    </g>
   </g>
   <g id="patch_85">
    <path d="M 561.6 221 
L 921.6 221 
" style="fill:none;stroke:#000000;stroke-linecap:square;stroke-linejoin:miter;stroke-width:2.5;"/>
   </g>
   <g id="text_35">
    <!-- n=746 -->
    <defs>
     <path d="M 33.015625 40.375 
Q 26.375 40.375 22.484375 35.828125 
Q 18.609375 31.296875 18.609375 23.390625 
Q 18.609375 15.53125 22.484375 10.953125 
Q 26.375 6.390625 33.015625 6.390625 
Q 39.65625 6.390625 43.53125 10.953125 
Q 47.40625 15.53125 47.40625 23.390625 
Q 47.40625 31.296875 43.53125 35.828125 
Q 39.65625 40.375 33.015625 40.375 
z
M 52.59375 71.296875 
L 52.59375 62.3125 
Q 48.875 64.0625 45.09375 64.984375 
Q 41.3125 65.921875 37.59375 65.921875 
Q 27.828125 65.921875 22.671875 59.328125 
Q 17.53125 52.734375 16.796875 39.40625 
Q 19.671875 43.65625 24.015625 45.921875 
Q 28.375 48.1875 33.59375 48.1875 
Q 44.578125 48.1875 50.953125 41.515625 
Q 57.328125 34.859375 57.328125 23.390625 
Q 57.328125 12.15625 50.6875 5.359375 
Q 44.046875 -1.421875 33.015625 -1.421875 
Q 20.359375 -1.421875 13.671875 8.265625 
Q 6.984375 17.96875 6.984375 36.375 
Q 6.984375 53.65625 15.1875 63.9375 
Q 23.390625 74.21875 37.203125 74.21875 
Q 40.921875 74.21875 44.703125 73.484375 
Q 48.484375 72.75 52.59375 71.296875 
z
" id="DejaVuSans-36"/>
    </defs>
    <g transform="translate(662.202238 177.12)scale(0.2 -0.2)">
     <use xlink:href="#DejaVuSans-6e"/>
     <use x="63.378906" xlink:href="#DejaVuSans-3d"/>
     <use x="147.167969" xlink:href="#DejaVuSans-37"/>
     <use x="210.791016" xlink:href="#DejaVuSans-34"/>
     <use x="274.414062" xlink:href="#DejaVuSans-36"/>
    </g>
   </g>
   <g id="text_36">
    <!-- n=906 -->
    <g transform="translate(671.467621 90.72)scale(0.2 -0.2)">
     <use xlink:href="#DejaVuSans-6e"/>
     <use x="63.378906" xlink:href="#DejaVuSans-3d"/>
     <use x="147.167969" xlink:href="#DejaVuSans-39"/>
     <use x="210.791016" xlink:href="#DejaVuSans-30"/>
     <use x="274.414062" xlink:href="#DejaVuSans-36"/>
    </g>
   </g>
   <g id="text_37">
    <!-- n=237 -->
    <g transform="translate(842.202238 177.12)scale(0.2 -0.2)">
     <use xlink:href="#DejaVuSans-6e"/>
     <use x="63.378906" xlink:href="#DejaVuSans-3d"/>
     <use x="147.167969" xlink:href="#DejaVuSans-32"/>
     <use x="210.791016" xlink:href="#DejaVuSans-33"/>
     <use x="274.414062" xlink:href="#DejaVuSans-37"/>
    </g>
   </g>
   <g id="text_38">
    <!-- n=212 -->
    <g transform="translate(851.467621 90.72)scale(0.2 -0.2)">
     <use xlink:href="#DejaVuSans-6e"/>
     <use x="63.378906" xlink:href="#DejaVuSans-3d"/>
     <use x="147.167969" xlink:href="#DejaVuSans-32"/>
     <use x="210.791016" xlink:href="#DejaVuSans-31"/>
     <use x="274.414062" xlink:href="#DejaVuSans-32"/>
    </g>
   </g>
   <g id="text_39">
    <!-- n=983 -->
    <g transform="translate(561.6 146.016)scale(0.2 -0.2)">
     <use xlink:href="#DejaVuSans-6e"/>
     <use x="63.378906" xlink:href="#DejaVuSans-3d"/>
     <use x="147.167969" xlink:href="#DejaVuSans-39"/>
     <use x="210.791016" xlink:href="#DejaVuSans-38"/>
     <use x="274.414062" xlink:href="#DejaVuSans-33"/>
    </g>
   </g>
   <g id="text_40">
    <!-- n=1118 -->
    <g transform="translate(561.6 59.616)scale(0.2 -0.2)">
     <use xlink:href="#DejaVuSans-6e"/>
     <use x="63.378906" xlink:href="#DejaVuSans-3d"/>
     <use x="147.167969" xlink:href="#DejaVuSans-31"/>
     <use x="210.791016" xlink:href="#DejaVuSans-31"/>
     <use x="274.414062" xlink:href="#DejaVuSans-31"/>
     <use x="338.037109" xlink:href="#DejaVuSans-38"/>
    </g>
   </g>
   <g id="text_41">
    <!-- (b) -->
    <defs>
     <path d="M 37.5 11.28125 
Q 43.109375 11.28125 46.0625 15.375 
Q 49.03125 19.484375 49.03125 27.296875 
Q 49.03125 35.109375 46.0625 39.203125 
Q 43.109375 43.3125 37.5 43.3125 
Q 31.890625 43.3125 28.875 39.1875 
Q 25.875 35.0625 25.875 27.296875 
Q 25.875 19.53125 28.875 15.40625 
Q 31.890625 11.28125 37.5 11.28125 
z
M 25.875 46.6875 
Q 29.5 51.46875 33.890625 53.734375 
Q 38.28125 56 44 56 
Q 54.109375 56 60.59375 47.96875 
Q 67.09375 39.9375 67.09375 27.296875 
Q 67.09375 14.65625 60.59375 6.609375 
Q 54.109375 -1.421875 44 -1.421875 
Q 38.28125 -1.421875 33.890625 0.84375 
Q 29.5 3.125 25.875 7.90625 
L 25.875 0 
L 8.40625 0 
L 8.40625 75.984375 
L 25.875 75.984375 
z
" id="DejaVuSans-Bold-62"/>
    </defs>
    <g transform="translate(892.8 47.615)scale(0.16 -0.16)">
     <use xlink:href="#DejaVuSans-Bold-28"/>
     <use x="45.703125" xlink:href="#DejaVuSans-Bold-62"/>
     <use x="117.285156" xlink:href="#DejaVuSans-Bold-29"/>
    </g>
   </g>
   <g id="text_42">
    <!-- Sex distribution -->
    <defs>
     <path d="M 54.890625 54.6875 
L 35.109375 28.078125 
L 55.90625 0 
L 45.3125 0 
L 29.390625 21.484375 
L 13.484375 0 
L 2.875 0 
L 24.125 28.609375 
L 4.6875 54.6875 
L 15.28125 54.6875 
L 29.78125 35.203125 
L 44.28125 54.6875 
z
" id="DejaVuSans-78"/>
    </defs>
    <g transform="translate(647.300625 37.2)scale(0.24 -0.24)">
     <use xlink:href="#DejaVuSans-53"/>
     <use x="63.476562" xlink:href="#DejaVuSans-65"/>
     <use x="124.984375" xlink:href="#DejaVuSans-78"/>
     <use x="184.164062" xlink:href="#DejaVuSans-20"/>
     <use x="215.951172" xlink:href="#DejaVuSans-64"/>
     <use x="279.427734" xlink:href="#DejaVuSans-69"/>
     <use x="307.210938" xlink:href="#DejaVuSans-73"/>
     <use x="359.310547" xlink:href="#DejaVuSans-74"/>
     <use x="398.519531" xlink:href="#DejaVuSans-72"/>
     <use x="439.632812" xlink:href="#DejaVuSans-69"/>
     <use x="467.416016" xlink:href="#DejaVuSans-62"/>
     <use x="530.892578" xlink:href="#DejaVuSans-75"/>
     <use x="594.271484" xlink:href="#DejaVuSans-74"/>
     <use x="633.480469" xlink:href="#DejaVuSans-69"/>
     <use x="661.263672" xlink:href="#DejaVuSans-6f"/>
     <use x="722.445312" xlink:href="#DejaVuSans-6e"/>
    </g>
   </g>
   <g id="legend_2">
    <g id="patch_86">
     <path d="M 808.2 123.188438 
L 836.2 123.188438 
L 836.2 113.388438 
L 808.2 113.388438 
z
" style="fill:#1f77b4;"/>
    </g>
    <g id="text_43">
     <!-- Male -->
     <defs>
      <path d="M 9.8125 72.90625 
L 24.515625 72.90625 
L 43.109375 23.296875 
L 61.8125 72.90625 
L 76.515625 72.90625 
L 76.515625 0 
L 66.890625 0 
L 66.890625 64.015625 
L 48.09375 14.015625 
L 38.1875 14.015625 
L 19.390625 64.015625 
L 19.390625 0 
L 9.8125 0 
z
" id="DejaVuSans-4d"/>
     </defs>
     <g transform="translate(847.4 123.188438)scale(0.14 -0.14)">
      <use xlink:href="#DejaVuSans-4d"/>
      <use x="86.279297" xlink:href="#DejaVuSans-61"/>
      <use x="147.558594" xlink:href="#DejaVuSans-6c"/>
      <use x="175.341797" xlink:href="#DejaVuSans-65"/>
     </g>
    </g>
    <g id="patch_87">
     <path d="M 808.2 143.737813 
L 836.2 143.737813 
L 836.2 133.937813 
L 808.2 133.937813 
z
" style="fill:#ff7f0e;"/>
    </g>
    <g id="text_44">
     <!-- Female -->
     <defs>
      <path d="M 9.8125 72.90625 
L 51.703125 72.90625 
L 51.703125 64.59375 
L 19.671875 64.59375 
L 19.671875 43.109375 
L 48.578125 43.109375 
L 48.578125 34.8125 
L 19.671875 34.8125 
L 19.671875 0 
L 9.8125 0 
z
" id="DejaVuSans-46"/>
     </defs>
     <g transform="translate(847.4 143.737813)scale(0.14 -0.14)">
      <use xlink:href="#DejaVuSans-46"/>
      <use x="57.441406" xlink:href="#DejaVuSans-65"/>
      <use x="118.964844" xlink:href="#DejaVuSans-6d"/>
      <use x="216.376953" xlink:href="#DejaVuSans-61"/>
      <use x="277.65625" xlink:href="#DejaVuSans-6c"/>
      <use x="305.439453" xlink:href="#DejaVuSans-65"/>
     </g>
    </g>
   </g>
  </g>
  <g id="axes_5">
   <g id="patch_88">
    <path d="M 1036.8 216 
L 1396.8 216 
L 1396.8 43.2 
L 1036.8 43.2 
z
" style="fill:#ffffff;"/>
   </g>
   <g id="PolyCollection_1">
    <defs>
     <path d="M 1038.098599 -302.4 
L 1038.098599 -302.780278 
L 1041.214547 -303.173859 
L 1044.330494 -303.880113 
L 1047.446442 -305.066366 
L 1050.562389 -306.934139 
L 1053.678337 -309.694734 
L 1056.794284 -313.529456 
L 1059.910232 -318.54033 
L 1063.026179 -324.702644 
L 1066.142127 -331.833411 
L 1069.258074 -339.587766 
L 1072.374022 -347.488637 
L 1075.489969 -354.985774 
L 1078.605917 -361.531799 
L 1081.721864 -366.658602 
L 1084.837812 -370.038475 
L 1087.953759 -371.52 
L 1091.069707 -371.13605 
L 1094.185654 -369.087056 
L 1097.301602 -365.70499 
L 1100.417549 -361.403283 
L 1103.533497 -356.618015 
L 1106.649444 -351.748124 
L 1109.765392 -347.105672 
L 1112.881339 -342.887406 
L 1115.997287 -339.173351 
L 1119.113234 -335.948983 
L 1122.229182 -333.140096 
L 1125.345129 -330.647958 
L 1128.461077 -328.376571 
L 1131.577024 -326.249709 
L 1134.692972 -324.21917 
L 1137.808919 -322.266386 
L 1140.924866 -320.398807 
L 1144.040814 -318.642103 
L 1147.156761 -317.029725 
L 1150.272709 -315.592081 
L 1153.388656 -314.347767 
L 1156.504604 -313.298725 
L 1159.620551 -312.430161 
L 1162.736499 -311.714647 
L 1165.852446 -311.118504 
L 1168.968394 -310.60788 
L 1172.084341 -310.15244 
L 1175.200289 -309.726345 
L 1178.316236 -309.308003 
L 1181.432184 -308.880802 
L 1184.548131 -308.435831 
L 1187.664079 -307.975523 
L 1190.780026 -307.515488 
L 1193.895974 -307.082059 
L 1197.011921 -306.705126 
L 1200.127869 -306.408532 
L 1203.243816 -306.201981 
L 1206.359764 -306.078006 
L 1209.475711 -306.015174 
L 1212.591659 -305.985745 
L 1215.707606 -305.964167 
L 1218.823554 -305.932974 
L 1221.939501 -305.884492 
L 1225.055449 -305.81895 
L 1228.171396 -305.740774 
L 1231.287344 -305.654876 
L 1234.403291 -305.563978 
L 1237.519239 -305.467345 
L 1240.635186 -305.360961 
L 1243.751134 -305.239037 
L 1246.867081 -305.096577 
L 1249.983028 -304.932337 
L 1253.098976 -304.751171 
L 1256.214923 -304.564748 
L 1259.330871 -304.39003 
L 1262.446818 -304.245696 
L 1265.562766 -304.147373 
L 1268.678713 -304.102984 
L 1271.794661 -304.109526 
L 1274.910608 -304.152355 
L 1278.026556 -304.207565 
L 1281.142503 -304.247218 
L 1284.258451 -304.246133 
L 1287.374398 -304.18819 
L 1290.490346 -304.070049 
L 1293.606293 -303.901181 
L 1296.722241 -303.700474 
L 1299.838188 -303.490865 
L 1302.954136 -303.293766 
L 1306.070083 -303.124747 
L 1309.186031 -302.991269 
L 1312.301978 -302.892643 
L 1315.417926 -302.821921 
L 1318.533873 -302.768994 
L 1321.649821 -302.723955 
L 1324.765768 -302.67973 
L 1327.881716 -302.633308 
L 1330.997663 -302.585424 
L 1334.113611 -302.539114 
L 1337.229558 -302.497903 
L 1340.345506 -302.464352 
L 1343.461453 -302.439387 
L 1346.577401 -302.422397 
L 1346.577401 -302.4 
L 1346.577401 -302.4 
L 1343.461453 -302.4 
L 1340.345506 -302.4 
L 1337.229558 -302.4 
L 1334.113611 -302.4 
L 1330.997663 -302.4 
L 1327.881716 -302.4 
L 1324.765768 -302.4 
L 1321.649821 -302.4 
L 1318.533873 -302.4 
L 1315.417926 -302.4 
L 1312.301978 -302.4 
L 1309.186031 -302.4 
L 1306.070083 -302.4 
L 1302.954136 -302.4 
L 1299.838188 -302.4 
L 1296.722241 -302.4 
L 1293.606293 -302.4 
L 1290.490346 -302.4 
L 1287.374398 -302.4 
L 1284.258451 -302.4 
L 1281.142503 -302.4 
L 1278.026556 -302.4 
L 1274.910608 -302.4 
L 1271.794661 -302.4 
L 1268.678713 -302.4 
L 1265.562766 -302.4 
L 1262.446818 -302.4 
L 1259.330871 -302.4 
L 1256.214923 -302.4 
L 1253.098976 -302.4 
L 1249.983028 -302.4 
L 1246.867081 -302.4 
L 1243.751134 -302.4 
L 1240.635186 -302.4 
L 1237.519239 -302.4 
L 1234.403291 -302.4 
L 1231.287344 -302.4 
L 1228.171396 -302.4 
L 1225.055449 -302.4 
L 1221.939501 -302.4 
L 1218.823554 -302.4 
L 1215.707606 -302.4 
L 1212.591659 -302.4 
L 1209.475711 -302.4 
L 1206.359764 -302.4 
L 1203.243816 -302.4 
L 1200.127869 -302.4 
L 1197.011921 -302.4 
L 1193.895974 -302.4 
L 1190.780026 -302.4 
L 1187.664079 -302.4 
L 1184.548131 -302.4 
L 1181.432184 -302.4 
L 1178.316236 -302.4 
L 1175.200289 -302.4 
L 1172.084341 -302.4 
L 1168.968394 -302.4 
L 1165.852446 -302.4 
L 1162.736499 -302.4 
L 1159.620551 -302.4 
L 1156.504604 -302.4 
L 1153.388656 -302.4 
L 1150.272709 -302.4 
L 1147.156761 -302.4 
L 1144.040814 -302.4 
L 1140.924866 -302.4 
L 1137.808919 -302.4 
L 1134.692972 -302.4 
L 1131.577024 -302.4 
L 1128.461077 -302.4 
L 1125.345129 -302.4 
L 1122.229182 -302.4 
L 1119.113234 -302.4 
L 1115.997287 -302.4 
L 1112.881339 -302.4 
L 1109.765392 -302.4 
L 1106.649444 -302.4 
L 1103.533497 -302.4 
L 1100.417549 -302.4 
L 1097.301602 -302.4 
L 1094.185654 -302.4 
L 1091.069707 -302.4 
L 1087.953759 -302.4 
L 1084.837812 -302.4 
L 1081.721864 -302.4 
L 1078.605917 -302.4 
L 1075.489969 -302.4 
L 1072.374022 -302.4 
L 1069.258074 -302.4 
L 1066.142127 -302.4 
L 1063.026179 -302.4 
L 1059.910232 -302.4 
L 1056.794284 -302.4 
L 1053.678337 -302.4 
L 1050.562389 -302.4 
L 1047.446442 -302.4 
L 1044.330494 -302.4 
L 1041.214547 -302.4 
L 1038.098599 -302.4 
z
" id="macc8816a9b" style="stroke:#3f3f3f;stroke-width:3;"/>
    </defs>
    <g clip-path="url(#p48f70c974b)">
     <use style="fill:#3274a1;stroke:#3f3f3f;stroke-width:3;" x="0" xlink:href="#macc8816a9b" y="432"/>
    </g>
   </g>
   <g id="PolyCollection_2">
    <defs>
     <path d="M 1028.489016 -302.232451 
L 1028.489016 -302.4 
L 1032.056915 -302.4 
L 1035.624813 -302.4 
L 1039.192712 -302.4 
L 1042.760611 -302.4 
L 1046.328509 -302.4 
L 1049.896408 -302.4 
L 1053.464307 -302.4 
L 1057.032205 -302.4 
L 1060.600104 -302.4 
L 1064.168003 -302.4 
L 1067.735901 -302.4 
L 1071.3038 -302.4 
L 1074.871699 -302.4 
L 1078.439597 -302.4 
L 1082.007496 -302.4 
L 1085.575395 -302.4 
L 1089.143293 -302.4 
L 1092.711192 -302.4 
L 1096.279091 -302.4 
L 1099.846989 -302.4 
L 1103.414888 -302.4 
L 1106.982787 -302.4 
L 1110.550685 -302.4 
L 1114.118584 -302.4 
L 1117.686483 -302.4 
L 1121.254381 -302.4 
L 1124.82228 -302.4 
L 1128.390179 -302.4 
L 1131.958077 -302.4 
L 1135.525976 -302.4 
L 1139.093875 -302.4 
L 1142.661773 -302.4 
L 1146.229672 -302.4 
L 1149.797571 -302.4 
L 1153.365469 -302.4 
L 1156.933368 -302.4 
L 1160.501267 -302.4 
L 1164.069165 -302.4 
L 1167.637064 -302.4 
L 1171.204963 -302.4 
L 1174.772861 -302.4 
L 1178.34076 -302.4 
L 1181.908659 -302.4 
L 1185.476557 -302.4 
L 1189.044456 -302.4 
L 1192.612355 -302.4 
L 1196.180253 -302.4 
L 1199.748152 -302.4 
L 1203.316051 -302.4 
L 1206.883949 -302.4 
L 1210.451848 -302.4 
L 1214.019747 -302.4 
L 1217.587645 -302.4 
L 1221.155544 -302.4 
L 1224.723443 -302.4 
L 1228.291341 -302.4 
L 1231.85924 -302.4 
L 1235.427139 -302.4 
L 1238.995037 -302.4 
L 1242.562936 -302.4 
L 1246.130835 -302.4 
L 1249.698733 -302.4 
L 1253.266632 -302.4 
L 1256.834531 -302.4 
L 1260.402429 -302.4 
L 1263.970328 -302.4 
L 1267.538227 -302.4 
L 1271.106125 -302.4 
L 1274.674024 -302.4 
L 1278.241923 -302.4 
L 1281.809821 -302.4 
L 1285.37772 -302.4 
L 1288.945619 -302.4 
L 1292.513517 -302.4 
L 1296.081416 -302.4 
L 1299.649315 -302.4 
L 1303.217213 -302.4 
L 1306.785112 -302.4 
L 1310.353011 -302.4 
L 1313.920909 -302.4 
L 1317.488808 -302.4 
L 1321.056707 -302.4 
L 1324.624605 -302.4 
L 1328.192504 -302.4 
L 1331.760403 -302.4 
L 1335.328301 -302.4 
L 1338.8962 -302.4 
L 1342.464099 -302.4 
L 1346.031997 -302.4 
L 1349.599896 -302.4 
L 1353.167795 -302.4 
L 1356.735693 -302.4 
L 1360.303592 -302.4 
L 1363.871491 -302.4 
L 1367.439389 -302.4 
L 1371.007288 -302.4 
L 1374.575187 -302.4 
L 1378.143085 -302.4 
L 1381.710984 -302.4 
L 1381.710984 -302.379359 
L 1381.710984 -302.379359 
L 1378.143085 -302.365756 
L 1374.575187 -302.347189 
L 1371.007288 -302.324252 
L 1367.439389 -302.298858 
L 1363.871491 -302.274055 
L 1360.303592 -302.253233 
L 1356.735693 -302.2389 
L 1353.167795 -302.231449 
L 1349.599896 -302.228486 
L 1346.031997 -302.225114 
L 1342.464099 -302.215125 
L 1338.8962 -302.192681 
L 1335.328301 -302.153848 
L 1331.760403 -302.097465 
L 1328.192504 -302.025136 
L 1324.624605 -301.940476 
L 1321.056707 -301.847859 
L 1317.488808 -301.750887 
L 1313.920909 -301.650774 
L 1310.353011 -301.544935 
L 1306.785112 -301.426349 
L 1303.217213 -301.284404 
L 1299.649315 -301.107664 
L 1296.081416 -300.888155 
L 1292.513517 -300.625713 
L 1288.945619 -300.330308 
L 1285.37772 -300.020615 
L 1281.809821 -299.718539 
L 1278.241923 -299.441334 
L 1274.674024 -299.194455 
L 1271.106125 -298.968442 
L 1267.538227 -298.741607 
L 1263.970328 -298.487871 
L 1260.402429 -298.186688 
L 1256.834531 -297.831114 
L 1253.266632 -297.43089 
L 1249.698733 -297.009664 
L 1246.130835 -296.597926 
L 1242.562936 -296.224715 
L 1238.995037 -295.911154 
L 1235.427139 -295.66761 
L 1231.85924 -295.494439 
L 1228.291341 -295.384947 
L 1224.723443 -295.328652 
L 1221.155544 -295.313387 
L 1217.587645 -295.325749 
L 1214.019747 -295.350533 
L 1210.451848 -295.370493 
L 1206.883949 -295.367655 
L 1203.316051 -295.326351 
L 1199.748152 -295.236753 
L 1196.180253 -295.096894 
L 1192.612355 -294.911767 
L 1189.044456 -294.689762 
L 1185.476557 -294.438272 
L 1181.908659 -294.160642 
L 1178.34076 -293.855435 
L 1174.772861 -293.517285 
L 1171.204963 -293.137654 
L 1167.637064 -292.70421 
L 1164.069165 -292.199006 
L 1160.501267 -291.596954 
L 1156.933368 -290.866234 
L 1153.365469 -289.971126 
L 1149.797571 -288.876119 
L 1146.229672 -287.549251 
L 1142.661773 -285.963229 
L 1139.093875 -284.094521 
L 1135.525976 -281.921998 
L 1131.958077 -279.426708 
L 1128.390179 -276.592914 
L 1124.82228 -273.409169 
L 1121.254381 -269.868241 
L 1117.686483 -265.96697 
L 1114.118584 -261.710042 
L 1110.550685 -257.122914 
L 1106.982787 -252.276721 
L 1103.414888 -247.321785 
L 1099.846989 -242.518667 
L 1096.279091 -238.25024 
L 1092.711192 -234.998737 
L 1089.143293 -233.28 
L 1085.575395 -233.54195 
L 1082.007496 -236.050843 
L 1078.439597 -240.800045 
L 1074.871699 -247.475188 
L 1071.3038 -255.494244 
L 1067.735901 -264.115898 
L 1064.168003 -272.584843 
L 1060.600104 -280.269889 
L 1057.032205 -286.755942 
L 1053.464307 -291.870931 
L 1049.896408 -295.653321 
L 1046.328509 -298.28358 
L 1042.760611 -300.007892 
L 1039.192712 -301.075815 
L 1035.624813 -301.701742 
L 1032.056915 -302.049373 
L 1028.489016 -302.232451 
z
" id="m768277988c" style="stroke:#3f3f3f;stroke-width:3;"/>
    </defs>
    <g clip-path="url(#p48f70c974b)">
     <use style="fill:#e1812c;stroke:#3f3f3f;stroke-width:3;" x="0" xlink:href="#m768277988c" y="432"/>
    </g>
   </g>
   <g id="patch_89">
    <path clip-path="url(#p48f70c974b)" d="M 1036.8 129.6 
L 1036.8 129.6 
L 1036.8 129.6 
L 1036.8 129.6 
z
" style="fill:#3274a1;stroke:#3f3f3f;stroke-linejoin:miter;stroke-width:1.5;"/>
   </g>
   <g id="patch_90">
    <path clip-path="url(#p48f70c974b)" d="M 1036.8 129.6 
L 1036.8 129.6 
L 1036.8 129.6 
L 1036.8 129.6 
z
" style="fill:#e1812c;stroke:#3f3f3f;stroke-linejoin:miter;stroke-width:1.5;"/>
   </g>
   <g id="matplotlib.axis_9">
    <g id="xtick_13">
     <g id="line2d_21">
      <g>
       <use style="stroke:#000000;stroke-width:2.5;" x="1036.8" xlink:href="#mcf5cca3402" y="221"/>
      </g>
     </g>
     <g id="text_45">
      <!-- 0 yr -->
      <defs>
       <path d="M 32.171875 -5.078125 
Q 28.375 -14.84375 24.75 -17.8125 
Q 21.140625 -20.796875 15.09375 -20.796875 
L 7.90625 -20.796875 
L 7.90625 -13.28125 
L 13.1875 -13.28125 
Q 16.890625 -13.28125 18.9375 -11.515625 
Q 21 -9.765625 23.484375 -3.21875 
L 25.09375 0.875 
L 2.984375 54.6875 
L 12.5 54.6875 
L 29.59375 11.921875 
L 46.6875 54.6875 
L 56.203125 54.6875 
z
" id="DejaVuSans-79"/>
      </defs>
      <g transform="translate(1017.229687 244.696875)scale(0.2 -0.2)">
       <use xlink:href="#DejaVuSans-30"/>
       <use x="63.623047" xlink:href="#DejaVuSans-20"/>
       <use x="95.410156" xlink:href="#DejaVuSans-79"/>
       <use x="154.589844" xlink:href="#DejaVuSans-72"/>
      </g>
     </g>
    </g>
    <g id="xtick_14">
     <g id="line2d_22">
      <g>
       <use style="stroke:#000000;stroke-width:2.5;" x="1216.8" xlink:href="#mcf5cca3402" y="221"/>
      </g>
     </g>
     <g id="text_46">
      <!-- 40 yr -->
      <g transform="translate(1190.867188 244.696875)scale(0.2 -0.2)">
       <use xlink:href="#DejaVuSans-34"/>
       <use x="63.623047" xlink:href="#DejaVuSans-30"/>
       <use x="127.246094" xlink:href="#DejaVuSans-20"/>
       <use x="159.033203" xlink:href="#DejaVuSans-79"/>
       <use x="218.212891" xlink:href="#DejaVuSans-72"/>
      </g>
     </g>
    </g>
    <g id="xtick_15">
     <g id="line2d_23">
      <g>
       <use style="stroke:#000000;stroke-width:2.5;" x="1396.8" xlink:href="#mcf5cca3402" y="221"/>
      </g>
     </g>
     <g id="text_47">
      <!-- 80 yr -->
      <g transform="translate(1370.867188 244.696875)scale(0.2 -0.2)">
       <use xlink:href="#DejaVuSans-38"/>
       <use x="63.623047" xlink:href="#DejaVuSans-30"/>
       <use x="127.246094" xlink:href="#DejaVuSans-20"/>
       <use x="159.033203" xlink:href="#DejaVuSans-79"/>
       <use x="218.212891" xlink:href="#DejaVuSans-72"/>
      </g>
     </g>
    </g>
   </g>
   <g id="matplotlib.axis_10">
    <g id="ytick_9">
     <g id="line2d_24"/>
    </g>
   </g>
   <g id="line2d_25">
    <path clip-path="url(#p48f70c974b)" d="M 1084.469178 62.63791 
L 1084.469178 129.6 
" style="fill:none;stroke:#3f3f3f;stroke-dasharray:13.5,13.5;stroke-dashoffset:0;stroke-width:3;"/>
   </g>
   <g id="line2d_26">
    <path clip-path="url(#p48f70c974b)" d="M 1098.585 66.92806 
L 1098.585 129.6 
" style="fill:none;stroke:#3f3f3f;stroke-dasharray:27,27;stroke-dashoffset:0;stroke-width:3;"/>
   </g>
   <g id="line2d_27">
    <path clip-path="url(#p48f70c974b)" d="M 1126.8 101.634521 
L 1126.8 129.6 
" style="fill:none;stroke:#3f3f3f;stroke-dasharray:13.5,13.5;stroke-dashoffset:0;stroke-width:3;"/>
   </g>
   <g id="line2d_28">
    <path clip-path="url(#p48f70c974b)" d="M 1083.6225 129.6 
L 1083.6225 195.285666 
" style="fill:none;stroke:#3f3f3f;stroke-dasharray:13.5,13.5;stroke-dashoffset:0;stroke-width:3;"/>
   </g>
   <g id="line2d_29">
    <path clip-path="url(#p48f70c974b)" d="M 1099.575 129.6 
L 1099.575 188.882519 
" style="fill:none;stroke:#3f3f3f;stroke-dasharray:27,27;stroke-dashoffset:0;stroke-width:3;"/>
   </g>
   <g id="line2d_30">
    <path clip-path="url(#p48f70c974b)" d="M 1131.525 129.6 
L 1131.525 152.34356 
" style="fill:none;stroke:#3f3f3f;stroke-dasharray:13.5,13.5;stroke-dashoffset:0;stroke-width:3;"/>
   </g>
   <g id="patch_91">
    <path d="M 1036.8 221 
L 1396.8 221 
" style="fill:none;stroke:#000000;stroke-linecap:square;stroke-linejoin:miter;stroke-width:2.5;"/>
   </g>
   <g id="text_48">
    <!-- (c) -->
    <defs>
     <path d="M 52.59375 52.984375 
L 52.59375 38.71875 
Q 49.03125 41.15625 45.4375 42.328125 
Q 41.84375 43.5 37.984375 43.5 
Q 30.671875 43.5 26.59375 39.234375 
Q 22.515625 34.96875 22.515625 27.296875 
Q 22.515625 19.625 26.59375 15.34375 
Q 30.671875 11.078125 37.984375 11.078125 
Q 42.09375 11.078125 45.78125 12.296875 
Q 49.46875 13.53125 52.59375 15.921875 
L 52.59375 1.609375 
Q 48.484375 0.09375 44.265625 -0.65625 
Q 40.046875 -1.421875 35.796875 -1.421875 
Q 21 -1.421875 12.640625 6.171875 
Q 4.296875 13.765625 4.296875 27.296875 
Q 4.296875 40.828125 12.640625 48.40625 
Q 21 56 35.796875 56 
Q 40.09375 56 44.265625 55.25 
Q 48.4375 54.5 52.59375 52.984375 
z
" id="DejaVuSans-Bold-63"/>
    </defs>
    <g transform="translate(1368 47.615)scale(0.16 -0.16)">
     <use xlink:href="#DejaVuSans-Bold-28"/>
     <use x="45.703125" xlink:href="#DejaVuSans-Bold-63"/>
     <use x="104.980469" xlink:href="#DejaVuSans-Bold-29"/>
    </g>
   </g>
   <g id="text_49">
    <!-- Age distribution -->
    <defs>
     <path d="M 45.40625 27.984375 
Q 45.40625 37.75 41.375 43.109375 
Q 37.359375 48.484375 30.078125 48.484375 
Q 22.859375 48.484375 18.828125 43.109375 
Q 14.796875 37.75 14.796875 27.984375 
Q 14.796875 18.265625 18.828125 12.890625 
Q 22.859375 7.515625 30.078125 7.515625 
Q 37.359375 7.515625 41.375 12.890625 
Q 45.40625 18.265625 45.40625 27.984375 
z
M 54.390625 6.78125 
Q 54.390625 -7.171875 48.1875 -13.984375 
Q 42 -20.796875 29.203125 -20.796875 
Q 24.46875 -20.796875 20.265625 -20.09375 
Q 16.0625 -19.390625 12.109375 -17.921875 
L 12.109375 -9.1875 
Q 16.0625 -11.328125 19.921875 -12.34375 
Q 23.78125 -13.375 27.78125 -13.375 
Q 36.625 -13.375 41.015625 -8.765625 
Q 45.40625 -4.15625 45.40625 5.171875 
L 45.40625 9.625 
Q 42.625 4.78125 38.28125 2.390625 
Q 33.9375 0 27.875 0 
Q 17.828125 0 11.671875 7.65625 
Q 5.515625 15.328125 5.515625 27.984375 
Q 5.515625 40.671875 11.671875 48.328125 
Q 17.828125 56 27.875 56 
Q 33.9375 56 38.28125 53.609375 
Q 42.625 51.21875 45.40625 46.390625 
L 45.40625 54.6875 
L 54.390625 54.6875 
z
" id="DejaVuSans-67"/>
    </defs>
    <g transform="translate(1121.3925 37.2)scale(0.24 -0.24)">
     <use xlink:href="#DejaVuSans-41"/>
     <use x="68.408203" xlink:href="#DejaVuSans-67"/>
     <use x="131.884766" xlink:href="#DejaVuSans-65"/>
     <use x="193.408203" xlink:href="#DejaVuSans-20"/>
     <use x="225.195312" xlink:href="#DejaVuSans-64"/>
     <use x="288.671875" xlink:href="#DejaVuSans-69"/>
     <use x="316.455078" xlink:href="#DejaVuSans-73"/>
     <use x="368.554688" xlink:href="#DejaVuSans-74"/>
     <use x="407.763672" xlink:href="#DejaVuSans-72"/>
     <use x="448.876953" xlink:href="#DejaVuSans-69"/>
     <use x="476.660156" xlink:href="#DejaVuSans-62"/>
     <use x="540.136719" xlink:href="#DejaVuSans-75"/>
     <use x="603.515625" xlink:href="#DejaVuSans-74"/>
     <use x="642.724609" xlink:href="#DejaVuSans-69"/>
     <use x="670.507812" xlink:href="#DejaVuSans-6f"/>
     <use x="731.689453" xlink:href="#DejaVuSans-6e"/>
    </g>
   </g>
   <g id="legend_3">
    <g id="patch_92">
     <path d="M 1276.65375 186.939063 
L 1304.65375 186.939063 
L 1304.65375 177.139062 
L 1276.65375 177.139062 
z
" style="fill:#3274a1;stroke:#3f3f3f;stroke-linejoin:miter;stroke-width:1.5;"/>
    </g>
    <g id="text_50">
     <!-- public set -->
     <g transform="translate(1315.85375 186.939063)scale(0.14 -0.14)">
      <use xlink:href="#DejaVuSans-70"/>
      <use x="63.476562" xlink:href="#DejaVuSans-75"/>
      <use x="126.855469" xlink:href="#DejaVuSans-62"/>
      <use x="190.332031" xlink:href="#DejaVuSans-6c"/>
      <use x="218.115234" xlink:href="#DejaVuSans-69"/>
      <use x="245.898438" xlink:href="#DejaVuSans-63"/>
      <use x="300.878906" xlink:href="#DejaVuSans-20"/>
      <use x="332.666016" xlink:href="#DejaVuSans-73"/>
      <use x="384.765625" xlink:href="#DejaVuSans-65"/>
      <use x="446.289062" xlink:href="#DejaVuSans-74"/>
     </g>
    </g>
    <g id="patch_93">
     <path d="M 1276.65375 207.488438 
L 1304.65375 207.488438 
L 1304.65375 197.688437 
L 1276.65375 197.688437 
z
" style="fill:#e1812c;stroke:#3f3f3f;stroke-linejoin:miter;stroke-width:1.5;"/>
    </g>
    <g id="text_51">
     <!-- private set -->
     <g transform="translate(1315.85375 207.488438)scale(0.14 -0.14)">
      <use xlink:href="#DejaVuSans-70"/>
      <use x="63.476562" xlink:href="#DejaVuSans-72"/>
      <use x="104.589844" xlink:href="#DejaVuSans-69"/>
      <use x="132.373047" xlink:href="#DejaVuSans-76"/>
      <use x="191.552734" xlink:href="#DejaVuSans-61"/>
      <use x="252.832031" xlink:href="#DejaVuSans-74"/>
      <use x="292.041016" xlink:href="#DejaVuSans-65"/>
      <use x="353.564453" xlink:href="#DejaVuSans-20"/>
      <use x="385.351562" xlink:href="#DejaVuSans-73"/>
      <use x="437.451172" xlink:href="#DejaVuSans-65"/>
      <use x="498.974609" xlink:href="#DejaVuSans-74"/>
     </g>
    </g>
   </g>
  </g>
 </g>
 <defs>
  <clipPath id="pf77f49266c">
   <rect height="86.4" width="432" x="144" y="302.4"/>
  </clipPath>
  <clipPath id="p12687090a4">
   <rect height="86.4" width="432" x="864" y="302.4"/>
  </clipPath>
  <clipPath id="pcab04207e7">
   <rect height="172.8" width="360" x="72" y="43.2"/>
  </clipPath>
  <clipPath id="pe5f1da27e0">
   <rect height="172.8" width="360" x="561.6" y="43.2"/>
  </clipPath>
  <clipPath id="p48f70c974b">
   <rect height="172.8" width="360" x="1036.8" y="43.2"/>
  </clipPath>
 </defs>
</svg>
